<svg xmlns="http://www.w3.org/2000/svg" width="960" height="640" viewBox="0 0 960 640"><polygon data-occluder="church" points="127.2,227.6 162.2,227.6 162.2,280.8 127.2,280.8" fill="#080d0a" opacity=".58"/><polygon data-occluder="tower" points="135.6,217.8 148.2,217.8 148.2,233.2 135.6,233.2" fill="#080d0a" opacity=".58"/><polygon data-occluder="monument" points="146.8,269.6 169.2,269.6 169.2,280.8 146.8,280.8" fill="#080d0a" opacity=".58"/><polygon data-occluder="building-01" points="267.2,227.6 314.8,227.6 314.8,265.4 267.2,265.4" fill="#080d0a" opacity=".58"/><polygon data-occluder="building-02" points="373.6,345.2 414.2,345.2 414.2,399.8 373.6,399.8" fill="#080d0a" opacity=".58"/><polygon data-occluder="building-03" points="502.4,243.0 566.8,243.0 566.8,286.4 502.4,286.4" fill="#080d0a" opacity=".58"/><polygon data-occluder="building-04" points="638.2,360.6 690.0,360.6 690.0,408.2 638.2,408.2" fill="#080d0a" opacity=".58"/><polygon data-occluder="building-05" points="799.2,265.4 845.4,265.4 845.4,331.2 799.2,331.2" fill="#080d0a" opacity=".58"/><circle cx="88.0" cy="215.0" r="7.0" fill="#101812" opacity=".42"/><circle cx="110.4" cy="299.0" r="7.0" fill="#101812" opacity=".42"/><circle cx="132.8" cy="215.0" r="7.0" fill="#101812" opacity=".42"/><circle cx="155.2" cy="299.0" r="7.0" fill="#101812" opacity=".42"/><circle cx="177.6" cy="215.0" r="7.0" fill="#101812" opacity=".42"/><circle cx="200.0" cy="299.0" r="7.0" fill="#101812" opacity=".42"/></svg>