<svg xmlns="http://www.w3.org/2000/svg" width="960" height="640" viewBox="0 0 960 640"><defs><linearGradient id="ground" x2="0" y2="1"><stop stop-color="#263b3b"/><stop offset="1" stop-color="#162728"/></linearGradient><style>.label{fill:#e2d7bd;font:12px system-ui;text-anchor:middle;paint-order:stroke;stroke:#101a1b;stroke-width:3px}</style></defs><rect width="960" height="640" fill="#0d171a"/><polygon points="60,55 900,55 900,585 60,585" fill="url(#ground)" stroke="#88928c"/><path d="M60 115H900M60 525H900" stroke="#65706d" stroke-width="28" opacity=".65"/><path d="M145 55V585M815 55V585" stroke="#65706d" stroke-width="24" opacity=".55"/><polygon points="611.0,12.1 611.0,-49.4 818.5,-49.4 818.5,12.1" fill="#5a5b57" stroke="#b9b19d" stroke-width="2"/><text x="714.78" y="-18.64850000000004" class="label">St. Michael&apos;s Church approximation</text><polygon points="572.8,-2.7 572.8,-24.8 632.9,-24.8 632.9,-2.7" fill="#77756c" stroke="#b9b19d" stroke-width="2"/><text x="602.8499999999999" y="-13.734500000000025" class="label">Church tower</text><polygon points="774.8,-22.3 774.8,-61.6 818.5,-61.6 818.5,-22.3" fill="#4b5550" stroke="#b9b19d" stroke-width="2"/><text x="796.68" y="-41.990000000000066" class="label">Matthias Corvinus monument approximation</text><circle cx="561.9" cy="80.85999999999999" r="11" fill="#3d5a4b" stroke="#78907d"/><circle cx="889.5" cy="41.54799999999996" r="11" fill="#3d5a4b" stroke="#78907d"/><circle cx="561.9" cy="2.23599999999999" r="11" fill="#3d5a4b" stroke="#78907d"/><circle cx="889.5" cy="-37.07600000000005" r="11" fill="#3d5a4b" stroke="#78907d"/><circle cx="561.8999999999999" cy="-76.388" r="11" fill="#3d5a4b" stroke="#78907d"/><circle cx="889.4999999999999" cy="-115.70000000000005" r="11" fill="#3d5a4b" stroke="#78907d"/><rect x="734.0799999999999" y="66.57499999999997" width="16" height="4" fill="#9b8769"/><rect x="772.3" y="-98.04400000000001" width="16" height="4" fill="#9b8769"/><rect x="928.64" y="88.14499999999995" width="20" height="10" rx="3" fill="#7b635d"/><rect x="513.68" y="-120.70000000000002" width="20" height="10" rx="3" fill="#7b635d"/><text x="24" y="618" fill="#9eaaa4" font-family="system-ui" font-size="13">Original schematic placeholder · 270° isometric</text></svg>