<svg xmlns="http://www.w3.org/2000/svg" width="1920" height="1280" viewBox="0 0 960 640"><defs>
      <linearGradient id="sky" x2="0" y2="1"><stop stop-color="#606b69"/><stop offset="1" stop-color="#202b2a"/></linearGradient>
      <linearGradient id="metal"><stop stop-color="#758183"/><stop offset="1" stop-color="#384344"/></linearGradient>
      <linearGradient id="glass" x2="1" y2="1"><stop stop-color="#9bb5b6"/><stop offset=".5" stop-color="#314b52"/><stop offset="1" stop-color="#c5d0c9"/></linearGradient>
      <linearGradient id="windowGlass" x2="0" y2="1"><stop stop-color="#9eaaa4"/><stop offset=".42" stop-color="#303b3a"/><stop offset="1" stop-color="#171d1c"/></linearGradient>
      <linearGradient id="flatRoof" x2="0" y2="1"><stop stop-color="#77796f"/><stop offset="1" stop-color="#4b514d"/></linearGradient>
      <pattern id="asphaltReal" width="192" height="192" patternUnits="userSpaceOnUse"><image href="../../../materials/industrial-wet-asphalt.png" width="192" height="192" preserveAspectRatio="none"/></pattern>
      <pattern id="paversReal" width="150" height="150" patternUnits="userSpaceOnUse"><image href="../../../materials/old-town-pavers.png" width="150" height="150" preserveAspectRatio="none"/></pattern>
      <pattern id="masonryReal" width="180" height="180" patternUnits="userSpaceOnUse"><image href="../../../materials/weathered-masonry.png" width="180" height="180" preserveAspectRatio="none"/></pattern>
      <pattern id="roofReal" width="144" height="144" patternUnits="userSpaceOnUse"><image href="../../../materials/weathered-roof.png" width="144" height="144" preserveAspectRatio="none"/></pattern>
      <pattern id="roofRealDark" width="144" height="144" patternUnits="userSpaceOnUse"><rect width="144" height="144" fill="#1c1b19"/><image href="../../../materials/weathered-roof.png" width="144" height="144" preserveAspectRatio="none" opacity=".66"/></pattern>
      <pattern id="ballast" width="12" height="12" patternUnits="userSpaceOnUse"><rect width="12" height="12" fill="#3b403d"/><circle cx="2" cy="3" r="1.6" fill="#77776d"/><circle cx="8" cy="7" r="2" fill="#5b5d56"/><circle cx="11" cy="1" r="1" fill="#8b887d"/></pattern>
      <radialGradient id="vignette"><stop offset="55%" stop-color="#000" stop-opacity="0"/><stop offset="100%" stop-color="#020604" stop-opacity=".55"/></radialGradient>
      <filter id="grain"><feTurbulence baseFrequency=".45" numOctaves="2" seed="19" result="n"/><feColorMatrix in="n" values=".08 0 0 0 .55 0 .08 0 0 .54 0 0 .08 0 .5 0 0 0 .13 0"/><feBlend in="SourceGraphic" mode="multiply"/></filter>
    </defs><rect width="960" height="640" fill="#1c2926"/><rect width="960" height="640" fill="url(#asphaltReal)" opacity=".72"/><rect width="960" height="640" fill="url(#sky)" opacity=".18"/><polygon points="253.8,77.5 900.0,450.6 706.2,562.5 60.0,189.4" fill="url(#asphaltReal)" opacity=".96" filter="url(#grain)"/><g data-surface="central-plaza"><polygon points="244.2,88.1 364.8,157.7 296.9,196.9 176.3,127.2" fill="url(#paversReal)" stroke="#a8a192" stroke-width="1"/></g><g data-surface="north-road"><polygon points="253.8,77.5 900.0,450.5 884.9,459.3 238.8,86.2" fill="url(#asphaltReal)" stroke="#576160" stroke-width="1"/><polyline points="251.7,85.0 887.1,451.8" fill="none" stroke="#d6c891" stroke-width="1.4" stroke-dasharray="10 10" opacity=".58"/></g><g data-surface="central-road"><polygon points="172.0,124.7 818.2,497.8 786.9,515.8 140.8,142.8" fill="url(#asphaltReal)" stroke="#576160" stroke-width="1"/><polyline points="161.8,136.9 797.2,503.7" fill="none" stroke="#d6c891" stroke-width="1.4" stroke-dasharray="10 10" opacity=".58"/></g><g data-surface="south-road"><polygon points="86.9,173.9 733.1,546.9 706.2,562.5 60.0,189.4" fill="url(#asphaltReal)" stroke="#576160" stroke-width="1"/><polyline points="78.8,184.8 714.2,551.6" fill="none" stroke="#d6c891" stroke-width="1.4" stroke-dasharray="10 10" opacity=".58"/></g><g data-surface="west-crossing"><polygon points="380.9,150.9 410.0,167.6 216.2,279.6 187.1,262.8" fill="url(#asphaltReal)" stroke="#576160" stroke-width="1"/><polyline points="390.1,162.4 207.0,268.1" fill="none" stroke="#d6c891" stroke-width="1.4" stroke-dasharray="10 10" opacity=".58"/></g><g data-surface="central-crossing"><polygon points="553.2,250.3 589.8,271.5 396.0,383.4 359.4,362.3" fill="url(#asphaltReal)" stroke="#576160" stroke-width="1"/><polyline points="566.2,264.0 383.1,369.7" fill="none" stroke="#d6c891" stroke-width="1.4" stroke-dasharray="10 10" opacity=".58"/></g><g data-surface="east-crossing"><polygon points="772.9,377.2 802.0,394.0 608.2,505.9 579.1,489.1" fill="url(#asphaltReal)" stroke="#576160" stroke-width="1"/><polyline points="782.1,388.7 599.0,494.4" fill="none" stroke="#d6c891" stroke-width="1.4" stroke-dasharray="10 10" opacity=".58"/></g><g data-surface="north-pavement"><polygon points="238.8,86.2 884.9,459.3 879.5,462.4 233.4,89.3" fill="url(#paversReal)" stroke="#8e9288" stroke-width="1"/></g><g data-surface="square-pavement"><polygon points="179.5,120.4 825.7,493.5 818.2,497.8 172.0,124.7" fill="url(#paversReal)" stroke="#8e9288" stroke-width="1"/></g><g data-surface="south-pavement"><polygon points="140.8,142.8 786.9,515.8 780.5,519.6 134.3,146.5" fill="url(#paversReal)" stroke="#8e9288" stroke-width="1"/></g><ellipse cx="251.5" cy="115.8" rx="10" ry="2.4" fill="#b9d0cf" opacity="0.04"/><ellipse cx="270.2" cy="158.0" rx="10" ry="2.4" fill="#b9d0cf" opacity="0.04"/><ellipse cx="397.9" cy="165.9" rx="11" ry="2.4" fill="#b9d0cf" opacity="0.04"/><ellipse cx="637.4" cy="311.2" rx="11" ry="2.4" fill="#b9d0cf" opacity="0.04"/><ellipse cx="311.2" cy="216.0" rx="12" ry="2.4" fill="#b9d0cf" opacity="0.04"/><ellipse cx="544.3" cy="365.0" rx="12" ry="2.4" fill="#b9d0cf" opacity="0.04"/><ellipse cx="227.5" cy="264.4" rx="13" ry="2.4" fill="#b9d0cf" opacity="0.04"/><ellipse cx="462.2" cy="412.3" rx="13" ry="2.4" fill="#b9d0cf" opacity="0.04"/><ellipse cx="329.5" cy="188.3" rx="14" ry="2.4" fill="#b9d0cf" opacity="0.04"/><ellipse cx="263.0" cy="239.5" rx="14" ry="2.4" fill="#b9d0cf" opacity="0.04"/><ellipse cx="503.5" cy="288.8" rx="15" ry="2.4" fill="#b9d0cf" opacity="0.04"/><ellipse cx="439.9" cy="341.6" rx="15" ry="2.4" fill="#b9d0cf" opacity="0.04"/><ellipse cx="721.5" cy="414.6" rx="16" ry="2.4" fill="#b9d0cf" opacity="0.04"/><ellipse cx="655.0" cy="465.8" rx="16" ry="2.4" fill="#b9d0cf" opacity="0.04"/><g data-landmark="monument"><polygon points="261.4,155.2 278.6,165.2 270.0,170.2 252.8,160.2" fill="#070b09" opacity=".42"/><polygon points="262.5,149.6 279.7,159.6 279.7,154.6 262.5,144.7" fill="url(#masonryReal)" stroke="#333b37" stroke-width=".9"/><polygon points="279.7,159.6 271.1,164.6 271.1,159.6 279.7,154.6" fill="url(#masonryReal)" stroke="#333b37" stroke-width=".9"/><polygon points="271.1,164.6 253.8,154.6 253.8,149.6 271.1,159.6" fill="url(#masonryReal)" stroke="#333b37" stroke-width=".9"/><polygon points="253.8,154.6 262.5,149.6 262.5,144.7 253.8,149.6" fill="url(#masonryReal)" stroke="#333b37" stroke-width=".9"/><polygon points="262.5,144.7 279.7,154.6 271.1,159.6 253.8,149.6" fill="url(#flatRoof)" stroke="#69736e" stroke-width="1.2"/><polygon points="263.2,145.8 277.6,154.1 270.4,158.3 255.9,150.0" fill="none" stroke="#282e2b" stroke-width=".65" opacity=".7"/></g><g data-landmark="building-01"><polygon points="386.3,190.0 422.9,211.2 393.8,228.0 357.2,206.8" fill="#070b09" opacity=".42"/><polygon points="387.4,184.5 424.0,205.6 424.0,189.4 387.4,168.3" fill="url(#masonryReal)" stroke="#333b37" stroke-width=".9"/><polygon points="424.0,205.6 394.9,222.4 394.9,206.2 424.0,189.4" fill="url(#masonryReal)" stroke="#333b37" stroke-width=".9"/><polygon points="394.9,222.4 358.3,201.2 358.3,185.1 394.9,206.2" fill="url(#masonryReal)" stroke="#333b37" stroke-width=".9"/><polygon points="358.3,201.2 387.4,184.5 387.4,168.3 358.3,185.1" fill="url(#masonryReal)" stroke="#333b37" stroke-width=".9"/><polygon points="387.4,168.3 424.0,189.4 391.2,183.0 358.3,185.1" fill="url(#roofReal)" stroke="#272a25"/><polygon points="424.0,189.4 394.9,206.2 358.3,185.1 391.2,183.0" fill="url(#roofRealDark)" stroke="#272a25"/><polygon points="394.6,183.9 396.6,185.0 396.6,182.1 394.6,180.9" fill="#494b46" stroke="#272b28" stroke-width=".4"/><polygon points="396.6,185.0 394.6,186.2 394.6,183.2 396.6,182.1" fill="#494b46" stroke="#272b28" stroke-width=".4"/><polygon points="394.6,186.2 392.7,185.0 392.7,182.1 394.6,183.2" fill="#494b46" stroke="#272b28" stroke-width=".4"/><polygon points="392.7,185.0 394.6,183.9 394.6,180.9 392.7,182.1" fill="#494b46" stroke="#272b28" stroke-width=".4"/><polygon points="394.6,180.9 396.6,182.1 394.6,183.2 392.7,182.1" fill="#77786d" stroke="#242926" stroke-width=".5"/><polygon points="420.2,205.4 418.1,206.6 418.1,204.9 420.2,203.7" fill="url(#windowGlass)" stroke="#171c1b" stroke-width=".35"/><polygon points="410.5,211.0 408.4,212.2 408.4,210.5 410.5,209.3" fill="url(#windowGlass)" stroke="#171c1b" stroke-width=".35"/><polygon points="400.8,216.6 398.8,217.8 398.8,216.1 400.8,214.9" fill="url(#windowGlass)" stroke="#171c1b" stroke-width=".35"/><polygon points="391.6,218.1 389.1,216.6 389.1,214.9 391.6,216.4" fill="url(#windowGlass)" stroke="#171c1b" stroke-width=".35"/><polygon points="382.5,212.8 379.9,211.4 379.9,209.6 382.5,211.1" fill="url(#windowGlass)" stroke="#171c1b" stroke-width=".35"/><polygon points="373.3,207.5 370.8,206.1 370.8,204.3 373.3,205.8" fill="url(#windowGlass)" stroke="#171c1b" stroke-width=".35"/><polygon points="364.2,202.3 361.6,200.8 361.6,199.0 364.2,200.5" fill="url(#windowGlass)" stroke="#171c1b" stroke-width=".35"/><polygon points="420.2,202.2 418.1,203.4 418.1,201.6 420.2,200.5" fill="url(#windowGlass)" stroke="#171c1b" stroke-width=".35"/><polygon points="410.5,207.8 408.4,209.0 408.4,207.2 410.5,206.1" fill="url(#windowGlass)" stroke="#171c1b" stroke-width=".35"/><polygon points="400.8,213.4 398.8,214.6 398.8,212.8 400.8,211.7" fill="url(#windowGlass)" stroke="#171c1b" stroke-width=".35"/><polygon points="391.6,214.9 389.1,213.4 389.1,211.7 391.6,213.1" fill="url(#windowGlass)" stroke="#171c1b" stroke-width=".35"/><polygon points="382.5,209.6 379.9,208.1 379.9,206.4 382.5,207.9" fill="url(#windowGlass)" stroke="#171c1b" stroke-width=".35"/><polygon points="373.3,204.3 370.8,202.8 370.8,201.1 373.3,202.6" fill="url(#windowGlass)" stroke="#171c1b" stroke-width=".35"/><polygon points="364.2,199.0 361.6,197.5 361.6,195.8 364.2,197.3" fill="url(#windowGlass)" stroke="#171c1b" stroke-width=".35"/><polygon points="420.2,199.0 418.1,200.1 418.1,198.4 420.2,197.2" fill="url(#windowGlass)" stroke="#171c1b" stroke-width=".35"/><polygon points="410.5,204.6 408.4,205.7 408.4,204.0 410.5,202.8" fill="url(#windowGlass)" stroke="#171c1b" stroke-width=".35"/><polygon points="400.8,210.2 398.8,211.3 398.8,209.6 400.8,208.4" fill="url(#windowGlass)" stroke="#171c1b" stroke-width=".35"/><polygon points="391.6,211.6 389.1,210.2 389.1,208.4 391.6,209.9" fill="url(#windowGlass)" stroke="#171c1b" stroke-width=".35"/><polygon points="382.5,206.4 379.9,204.9 379.9,203.1 382.5,204.6" fill="url(#windowGlass)" stroke="#171c1b" stroke-width=".35"/><polygon points="373.3,201.1 370.8,199.6 370.8,197.9 373.3,199.3" fill="url(#windowGlass)" stroke="#171c1b" stroke-width=".35"/><polygon points="364.2,195.8 361.6,194.3 361.6,192.6 364.2,194.1" fill="url(#windowGlass)" stroke="#171c1b" stroke-width=".35"/><polygon points="420.2,195.7 418.1,196.9 418.1,195.2 420.2,194.0" fill="url(#windowGlass)" stroke="#171c1b" stroke-width=".35"/><polygon points="410.5,201.3 408.4,202.5 408.4,200.8 410.5,199.6" fill="url(#windowGlass)" stroke="#171c1b" stroke-width=".35"/><polygon points="400.8,206.9 398.8,208.1 398.8,206.4 400.8,205.2" fill="url(#windowGlass)" stroke="#171c1b" stroke-width=".35"/><polygon points="391.6,208.4 389.1,206.9 389.1,205.2 391.6,206.7" fill="url(#windowGlass)" stroke="#171c1b" stroke-width=".35"/><polygon points="382.5,203.1 379.9,201.7 379.9,199.9 382.5,201.4" fill="url(#windowGlass)" stroke="#171c1b" stroke-width=".35"/><polygon points="373.3,197.8 370.8,196.4 370.8,194.6 373.3,196.1" fill="url(#windowGlass)" stroke="#171c1b" stroke-width=".35"/><polygon points="364.2,192.6 361.6,191.1 361.6,189.3 364.2,190.8" fill="url(#windowGlass)" stroke="#171c1b" stroke-width=".35"/></g><g data-landmark="building-02"><polygon points="377.7,289.5 408.9,307.6 366.9,331.8 335.7,313.8" fill="#070b09" opacity=".42"/><polygon points="378.8,283.9 410.0,302.0 410.0,283.3 378.8,265.3" fill="url(#masonryReal)" stroke="#333b37" stroke-width=".9"/><polygon points="410.0,302.0 368.0,326.2 368.0,307.6 410.0,283.3" fill="url(#masonryReal)" stroke="#333b37" stroke-width=".9"/><polygon points="368.0,326.2 336.8,308.2 336.8,289.5 368.0,307.6" fill="url(#masonryReal)" stroke="#333b37" stroke-width=".9"/><polygon points="336.8,308.2 378.8,283.9 378.8,265.3 336.8,289.5" fill="url(#masonryReal)" stroke="#333b37" stroke-width=".9"/><polygon points="378.8,265.3 410.0,283.3 373.4,282.8 336.8,289.5" fill="url(#roofReal)" stroke="#272a25"/><polygon points="410.0,283.3 368.0,307.6 336.8,289.5 373.4,282.8" fill="url(#roofRealDark)" stroke="#272a25"/><polygon points="378.4,282.2 380.4,283.3 380.4,280.3 378.4,279.2" fill="#494b46" stroke="#272b28" stroke-width=".4"/><polygon points="380.4,283.3 378.4,284.4 378.4,281.5 380.4,280.3" fill="#494b46" stroke="#272b28" stroke-width=".4"/><polygon points="378.4,284.4 376.5,283.3 376.5,280.3 378.4,281.5" fill="#494b46" stroke="#272b28" stroke-width=".4"/><polygon points="376.5,283.3 378.4,282.2 378.4,279.2 376.5,280.3" fill="#494b46" stroke="#272b28" stroke-width=".4"/><polygon points="378.4,279.2 380.4,280.3 378.4,281.5 376.5,280.3" fill="#77786d" stroke="#242926" stroke-width=".5"/><polygon points="407.3,301.3 404.3,303.0 404.3,301.3 407.3,299.6" fill="url(#windowGlass)" stroke="#171c1b" stroke-width=".35"/><polygon points="398.9,306.2 395.9,307.9 395.9,306.1 398.9,304.4" fill="url(#windowGlass)" stroke="#171c1b" stroke-width=".35"/><polygon points="390.5,311.0 387.5,312.7 387.5,311.0 390.5,309.3" fill="url(#windowGlass)" stroke="#171c1b" stroke-width=".35"/><polygon points="382.1,315.9 379.1,317.6 379.1,315.8 382.1,314.1" fill="url(#windowGlass)" stroke="#171c1b" stroke-width=".35"/><polygon points="373.7,320.7 370.7,322.4 370.7,320.7 373.7,319.0" fill="url(#windowGlass)" stroke="#171c1b" stroke-width=".35"/><polygon points="365.2,322.4 363.0,321.1 363.0,319.4 365.2,320.6" fill="url(#windowGlass)" stroke="#171c1b" stroke-width=".35"/><polygon points="357.4,317.8 355.2,316.6 355.2,314.8 357.4,316.1" fill="url(#windowGlass)" stroke="#171c1b" stroke-width=".35"/><polygon points="349.6,313.3 347.4,312.1 347.4,310.3 349.6,311.6" fill="url(#windowGlass)" stroke="#171c1b" stroke-width=".35"/><polygon points="341.8,308.8 339.6,307.6 339.6,305.8 341.8,307.1" fill="url(#windowGlass)" stroke="#171c1b" stroke-width=".35"/><polygon points="407.3,298.2 404.3,299.9 404.3,298.2 407.3,296.5" fill="url(#windowGlass)" stroke="#171c1b" stroke-width=".35"/><polygon points="398.9,303.0 395.9,304.7 395.9,303.0 398.9,301.3" fill="url(#windowGlass)" stroke="#171c1b" stroke-width=".35"/><polygon points="390.5,307.9 387.5,309.6 387.5,307.9 390.5,306.2" fill="url(#windowGlass)" stroke="#171c1b" stroke-width=".35"/><polygon points="382.1,312.7 379.1,314.4 379.1,312.7 382.1,311.0" fill="url(#windowGlass)" stroke="#171c1b" stroke-width=".35"/><polygon points="373.7,317.6 370.7,319.3 370.7,317.6 373.7,315.9" fill="url(#windowGlass)" stroke="#171c1b" stroke-width=".35"/><polygon points="365.2,319.2 363.0,318.0 363.0,316.2 365.2,317.5" fill="url(#windowGlass)" stroke="#171c1b" stroke-width=".35"/><polygon points="357.4,314.7 355.2,313.5 355.2,311.7 357.4,313.0" fill="url(#windowGlass)" stroke="#171c1b" stroke-width=".35"/><polygon points="349.6,310.2 347.4,309.0 347.4,307.2 349.6,308.5" fill="url(#windowGlass)" stroke="#171c1b" stroke-width=".35"/><polygon points="341.8,305.7 339.6,304.5 339.6,302.7 341.8,304.0" fill="url(#windowGlass)" stroke="#171c1b" stroke-width=".35"/><polygon points="407.3,295.1 404.3,296.8 404.3,295.0 407.3,293.3" fill="url(#windowGlass)" stroke="#171c1b" stroke-width=".35"/><polygon points="398.9,299.9 395.9,301.6 395.9,299.9 398.9,298.2" fill="url(#windowGlass)" stroke="#171c1b" stroke-width=".35"/><polygon points="390.5,304.8 387.5,306.5 387.5,304.7 390.5,303.0" fill="url(#windowGlass)" stroke="#171c1b" stroke-width=".35"/><polygon points="382.1,309.6 379.1,311.3 379.1,309.6 382.1,307.9" fill="url(#windowGlass)" stroke="#171c1b" stroke-width=".35"/><polygon points="373.7,314.5 370.7,316.2 370.7,314.4 373.7,312.7" fill="url(#windowGlass)" stroke="#171c1b" stroke-width=".35"/><polygon points="365.2,316.1 363.0,314.9 363.0,313.1 365.2,314.4" fill="url(#windowGlass)" stroke="#171c1b" stroke-width=".35"/><polygon points="357.4,311.6 355.2,310.4 355.2,308.6 357.4,309.9" fill="url(#windowGlass)" stroke="#171c1b" stroke-width=".35"/><polygon points="349.6,307.1 347.4,305.9 347.4,304.1 349.6,305.4" fill="url(#windowGlass)" stroke="#171c1b" stroke-width=".35"/><polygon points="341.8,302.6 339.6,301.4 339.6,299.6 341.8,300.9" fill="url(#windowGlass)" stroke="#171c1b" stroke-width=".35"/><polygon points="407.3,292.0 404.3,293.7 404.3,291.9 407.3,290.2" fill="url(#windowGlass)" stroke="#171c1b" stroke-width=".35"/><polygon points="398.9,296.8 395.9,298.5 395.9,296.8 398.9,295.1" fill="url(#windowGlass)" stroke="#171c1b" stroke-width=".35"/><polygon points="390.5,301.7 387.5,303.4 387.5,301.6 390.5,299.9" fill="url(#windowGlass)" stroke="#171c1b" stroke-width=".35"/><polygon points="382.1,306.5 379.1,308.2 379.1,306.5 382.1,304.8" fill="url(#windowGlass)" stroke="#171c1b" stroke-width=".35"/><polygon points="373.7,311.4 370.7,313.1 370.7,311.3 373.7,309.6" fill="url(#windowGlass)" stroke="#171c1b" stroke-width=".35"/><polygon points="365.2,313.0 363.0,311.8 363.0,310.0 365.2,311.3" fill="url(#windowGlass)" stroke="#171c1b" stroke-width=".35"/><polygon points="357.4,308.5 355.2,307.3 355.2,305.5 357.4,306.8" fill="url(#windowGlass)" stroke="#171c1b" stroke-width=".35"/><polygon points="349.6,304.0 347.4,302.8 347.4,301.0 349.6,302.3" fill="url(#windowGlass)" stroke="#171c1b" stroke-width=".35"/><polygon points="341.8,299.5 339.6,298.2 339.6,296.5 341.8,297.8" fill="url(#windowGlass)" stroke="#171c1b" stroke-width=".35"/><polygon points="407.3,288.9 404.3,290.6 404.3,288.8 407.3,287.1" fill="url(#windowGlass)" stroke="#171c1b" stroke-width=".35"/><polygon points="398.9,293.7 395.9,295.4 395.9,293.7 398.9,292.0" fill="url(#windowGlass)" stroke="#171c1b" stroke-width=".35"/><polygon points="390.5,298.6 387.5,300.3 387.5,298.5 390.5,296.8" fill="url(#windowGlass)" stroke="#171c1b" stroke-width=".35"/><polygon points="382.1,303.4 379.1,305.1 379.1,303.4 382.1,301.7" fill="url(#windowGlass)" stroke="#171c1b" stroke-width=".35"/><polygon points="373.7,308.3 370.7,310.0 370.7,308.2 373.7,306.5" fill="url(#windowGlass)" stroke="#171c1b" stroke-width=".35"/><polygon points="365.2,309.9 363.0,308.7 363.0,306.9 365.2,308.2" fill="url(#windowGlass)" stroke="#171c1b" stroke-width=".35"/><polygon points="357.4,305.4 355.2,304.2 355.2,302.4 357.4,303.7" fill="url(#windowGlass)" stroke="#171c1b" stroke-width=".35"/><polygon points="349.6,300.9 347.4,299.6 347.4,297.9 349.6,299.2" fill="url(#windowGlass)" stroke="#171c1b" stroke-width=".35"/><polygon points="341.8,296.4 339.6,295.1 339.6,293.4 341.8,294.7" fill="url(#windowGlass)" stroke="#171c1b" stroke-width=".35"/></g><g data-landmark="building-03"><polygon points="555.4,301.3 604.9,329.9 571.5,349.2 522.0,320.6" fill="#070b09" opacity=".42"/><polygon points="556.5,295.8 606.0,324.4 606.0,310.7 556.5,282.1" fill="url(#masonryReal)" stroke="#333b37" stroke-width=".9"/><polygon points="606.0,324.4 572.6,343.6 572.6,329.9 606.0,310.7" fill="url(#masonryReal)" stroke="#333b37" stroke-width=".9"/><polygon points="572.6,343.6 523.1,315.0 523.1,301.3 572.6,329.9" fill="url(#masonryReal)" stroke="#333b37" stroke-width=".9"/><polygon points="523.1,315.0 556.5,295.8 556.5,282.1 523.1,301.3" fill="url(#masonryReal)" stroke="#333b37" stroke-width=".9"/><polygon points="556.5,282.1 606.0,310.7 564.5,300.3 523.1,301.3" fill="url(#roofReal)" stroke="#272a25"/><polygon points="606.0,310.7 572.6,329.9 523.1,301.3 564.5,300.3" fill="url(#roofRealDark)" stroke="#272a25"/><polygon points="568.5,302.4 570.5,303.5 570.5,300.5 568.5,299.4" fill="#494b46" stroke="#272b28" stroke-width=".4"/><polygon points="570.5,303.5 568.5,304.6 568.5,301.6 570.5,300.5" fill="#494b46" stroke="#272b28" stroke-width=".4"/><polygon points="568.5,304.6 566.6,303.5 566.6,300.5 568.5,301.6" fill="#494b46" stroke="#272b28" stroke-width=".4"/><polygon points="566.6,303.5 568.5,302.4 568.5,299.4 566.6,300.5" fill="#494b46" stroke="#272b28" stroke-width=".4"/><polygon points="568.5,299.4 570.5,300.5 568.5,301.6 566.6,300.5" fill="#77786d" stroke="#242926" stroke-width=".5"/><polygon points="603.0,323.5 600.7,324.9 600.7,323.1 603.0,321.8" fill="url(#windowGlass)" stroke="#171c1b" stroke-width=".35"/><polygon points="594.6,328.4 592.3,329.7 592.3,328.0 594.6,326.6" fill="url(#windowGlass)" stroke="#171c1b" stroke-width=".35"/><polygon points="586.3,333.2 584.0,334.5 584.0,332.8 586.3,331.4" fill="url(#windowGlass)" stroke="#171c1b" stroke-width=".35"/><polygon points="578.0,338.0 575.6,339.3 575.6,337.6 578.0,336.3" fill="url(#windowGlass)" stroke="#171c1b" stroke-width=".35"/><polygon points="570.2,339.7 566.8,337.7 566.8,336.0 570.2,338.0" fill="url(#windowGlass)" stroke="#171c1b" stroke-width=".35"/><polygon points="562.0,334.9 558.5,332.9 558.5,331.2 562.0,333.2" fill="url(#windowGlass)" stroke="#171c1b" stroke-width=".35"/><polygon points="553.7,330.2 550.2,328.2 550.2,326.4 553.7,328.4" fill="url(#windowGlass)" stroke="#171c1b" stroke-width=".35"/><polygon points="545.5,325.4 542.0,323.4 542.0,321.7 545.5,323.7" fill="url(#windowGlass)" stroke="#171c1b" stroke-width=".35"/><polygon points="537.2,320.6 533.7,318.6 533.7,316.9 537.2,318.9" fill="url(#windowGlass)" stroke="#171c1b" stroke-width=".35"/><polygon points="528.9,315.9 525.5,313.9 525.5,312.1 528.9,314.1" fill="url(#windowGlass)" stroke="#171c1b" stroke-width=".35"/><polygon points="603.0,320.1 600.7,321.5 600.7,319.7 603.0,318.4" fill="url(#windowGlass)" stroke="#171c1b" stroke-width=".35"/><polygon points="594.6,324.9 592.3,326.3 592.3,324.5 594.6,323.2" fill="url(#windowGlass)" stroke="#171c1b" stroke-width=".35"/><polygon points="586.3,329.8 584.0,331.1 584.0,329.4 586.3,328.0" fill="url(#windowGlass)" stroke="#171c1b" stroke-width=".35"/><polygon points="578.0,334.6 575.6,335.9 575.6,334.2 578.0,332.8" fill="url(#windowGlass)" stroke="#171c1b" stroke-width=".35"/><polygon points="570.2,336.3 566.8,334.3 566.8,332.5 570.2,334.5" fill="url(#windowGlass)" stroke="#171c1b" stroke-width=".35"/><polygon points="562.0,331.5 558.5,329.5 558.5,327.8 562.0,329.8" fill="url(#windowGlass)" stroke="#171c1b" stroke-width=".35"/><polygon points="553.7,326.7 550.2,324.7 550.2,323.0 553.7,325.0" fill="url(#windowGlass)" stroke="#171c1b" stroke-width=".35"/><polygon points="545.5,322.0 542.0,320.0 542.0,318.2 545.5,320.2" fill="url(#windowGlass)" stroke="#171c1b" stroke-width=".35"/><polygon points="537.2,317.2 533.7,315.2 533.7,313.5 537.2,315.5" fill="url(#windowGlass)" stroke="#171c1b" stroke-width=".35"/><polygon points="528.9,312.4 525.5,310.4 525.5,308.7 528.9,310.7" fill="url(#windowGlass)" stroke="#171c1b" stroke-width=".35"/><polygon points="603.0,316.7 600.7,318.0 600.7,316.3 603.0,315.0" fill="url(#windowGlass)" stroke="#171c1b" stroke-width=".35"/><polygon points="594.6,321.5 592.3,322.9 592.3,321.1 594.6,319.8" fill="url(#windowGlass)" stroke="#171c1b" stroke-width=".35"/><polygon points="586.3,326.3 584.0,327.7 584.0,325.9 586.3,324.6" fill="url(#windowGlass)" stroke="#171c1b" stroke-width=".35"/><polygon points="578.0,331.2 575.6,332.5 575.6,330.8 578.0,329.4" fill="url(#windowGlass)" stroke="#171c1b" stroke-width=".35"/><polygon points="570.2,332.9 566.8,330.9 566.8,329.1 570.2,331.1" fill="url(#windowGlass)" stroke="#171c1b" stroke-width=".35"/><polygon points="562.0,328.1 558.5,326.1 558.5,324.3 562.0,326.3" fill="url(#windowGlass)" stroke="#171c1b" stroke-width=".35"/><polygon points="553.7,323.3 550.2,321.3 550.2,319.6 553.7,321.6" fill="url(#windowGlass)" stroke="#171c1b" stroke-width=".35"/><polygon points="545.5,318.6 542.0,316.6 542.0,314.8 545.5,316.8" fill="url(#windowGlass)" stroke="#171c1b" stroke-width=".35"/><polygon points="537.2,313.8 533.7,311.8 533.7,310.0 537.2,312.0" fill="url(#windowGlass)" stroke="#171c1b" stroke-width=".35"/><polygon points="528.9,309.0 525.5,307.0 525.5,305.3 528.9,307.3" fill="url(#windowGlass)" stroke="#171c1b" stroke-width=".35"/></g><g data-landmark="building-04"><polygon points="569.4,413.9 609.2,436.9 572.6,458.0 532.8,435.0" fill="#070b09" opacity=".42"/><polygon points="570.5,408.3 610.3,431.3 610.3,413.9 570.5,390.9" fill="url(#masonryReal)" stroke="#333b37" stroke-width=".9"/><polygon points="610.3,431.3 573.7,452.4 573.7,435.0 610.3,413.9" fill="url(#masonryReal)" stroke="#333b37" stroke-width=".9"/><polygon points="573.7,452.4 533.8,429.4 533.8,412.0 573.7,435.0" fill="url(#masonryReal)" stroke="#333b37" stroke-width=".9"/><polygon points="533.8,429.4 570.5,408.3 570.5,390.9 533.8,412.0" fill="url(#masonryReal)" stroke="#333b37" stroke-width=".9"/><polygon points="570.5,390.9 610.3,413.9 573.7,435.0 533.8,412.0" fill="url(#flatRoof)" stroke="#7e898e" stroke-width="1.2"/><polygon points="570.5,393.3 606.0,413.8 573.7,432.5 538.2,411.9" fill="none" stroke="#282e2b" stroke-width=".65" opacity=".7"/><polygon points="576.1,408.4 579.6,410.4 579.6,408.7 576.1,406.7" fill="#494b46" stroke="#272b28" stroke-width=".4"/><polygon points="579.6,410.4 576.8,412.0 576.8,410.3 579.6,408.7" fill="#494b46" stroke="#272b28" stroke-width=".4"/><polygon points="576.8,412.0 573.3,410.0 573.3,408.3 576.8,410.3" fill="#494b46" stroke="#272b28" stroke-width=".4"/><polygon points="573.3,410.0 576.1,408.4 576.1,406.7 573.3,408.3" fill="#494b46" stroke="#272b28" stroke-width=".4"/><polygon points="576.1,406.7 579.6,408.7 576.8,410.3 573.3,408.3" fill="#77786d" stroke="#242926" stroke-width=".5"/><polygon points="607.0,430.6 604.4,432.1 604.4,430.3 607.0,428.8" fill="url(#windowGlass)" stroke="#171c1b" stroke-width=".35"/><polygon points="597.9,435.9 595.3,437.4 595.3,435.6 597.9,434.1" fill="url(#windowGlass)" stroke="#171c1b" stroke-width=".35"/><polygon points="588.7,441.2 586.1,442.6 586.1,440.9 588.7,439.4" fill="url(#windowGlass)" stroke="#171c1b" stroke-width=".35"/><polygon points="579.6,446.4 577.0,447.9 577.0,446.2 579.6,444.7" fill="url(#windowGlass)" stroke="#171c1b" stroke-width=".35"/><polygon points="571.1,448.3 568.3,446.7 568.3,445.0 571.1,446.6" fill="url(#windowGlass)" stroke="#171c1b" stroke-width=".35"/><polygon points="563.1,443.7 560.3,442.1 560.3,440.4 563.1,442.0" fill="url(#windowGlass)" stroke="#171c1b" stroke-width=".35"/><polygon points="555.2,439.1 552.4,437.5 552.4,435.8 555.2,437.4" fill="url(#windowGlass)" stroke="#171c1b" stroke-width=".35"/><polygon points="547.2,434.5 544.4,432.9 544.4,431.2 547.2,432.8" fill="url(#windowGlass)" stroke="#171c1b" stroke-width=".35"/><polygon points="539.2,429.9 536.4,428.3 536.4,426.6 539.2,428.2" fill="url(#windowGlass)" stroke="#171c1b" stroke-width=".35"/><polygon points="607.0,427.1 604.4,428.6 604.4,426.8 607.0,425.4" fill="url(#windowGlass)" stroke="#171c1b" stroke-width=".35"/><polygon points="597.9,432.4 595.3,433.9 595.3,432.1 597.9,430.7" fill="url(#windowGlass)" stroke="#171c1b" stroke-width=".35"/><polygon points="588.7,437.7 586.1,439.2 586.1,437.4 588.7,435.9" fill="url(#windowGlass)" stroke="#171c1b" stroke-width=".35"/><polygon points="579.6,443.0 577.0,444.4 577.0,442.7 579.6,441.2" fill="url(#windowGlass)" stroke="#171c1b" stroke-width=".35"/><polygon points="571.1,444.9 568.3,443.2 568.3,441.5 571.1,443.1" fill="url(#windowGlass)" stroke="#171c1b" stroke-width=".35"/><polygon points="563.1,440.2 560.3,438.6 560.3,436.9 563.1,438.5" fill="url(#windowGlass)" stroke="#171c1b" stroke-width=".35"/><polygon points="555.2,435.6 552.4,434.0 552.4,432.3 555.2,433.9" fill="url(#windowGlass)" stroke="#171c1b" stroke-width=".35"/><polygon points="547.2,431.0 544.4,429.4 544.4,427.7 547.2,429.3" fill="url(#windowGlass)" stroke="#171c1b" stroke-width=".35"/><polygon points="539.2,426.4 536.4,424.8 536.4,423.1 539.2,424.7" fill="url(#windowGlass)" stroke="#171c1b" stroke-width=".35"/><polygon points="607.0,423.6 604.4,425.1 604.4,423.4 607.0,421.9" fill="url(#windowGlass)" stroke="#171c1b" stroke-width=".35"/><polygon points="597.9,428.9 595.3,430.4 595.3,428.6 597.9,427.2" fill="url(#windowGlass)" stroke="#171c1b" stroke-width=".35"/><polygon points="588.7,434.2 586.1,435.7 586.1,433.9 588.7,432.5" fill="url(#windowGlass)" stroke="#171c1b" stroke-width=".35"/><polygon points="579.6,439.5 577.0,441.0 577.0,439.2 579.6,437.7" fill="url(#windowGlass)" stroke="#171c1b" stroke-width=".35"/><polygon points="571.1,441.4 568.3,439.8 568.3,438.0 571.1,439.6" fill="url(#windowGlass)" stroke="#171c1b" stroke-width=".35"/><polygon points="563.1,436.8 560.3,435.2 560.3,433.4 563.1,435.0" fill="url(#windowGlass)" stroke="#171c1b" stroke-width=".35"/><polygon points="555.2,432.2 552.4,430.6 552.4,428.8 555.2,430.4" fill="url(#windowGlass)" stroke="#171c1b" stroke-width=".35"/><polygon points="547.2,427.6 544.4,426.0 544.4,424.2 547.2,425.8" fill="url(#windowGlass)" stroke="#171c1b" stroke-width=".35"/><polygon points="539.2,423.0 536.4,421.4 536.4,419.6 539.2,421.2" fill="url(#windowGlass)" stroke="#171c1b" stroke-width=".35"/><polygon points="607.0,420.1 604.4,421.6 604.4,419.9 607.0,418.4" fill="url(#windowGlass)" stroke="#171c1b" stroke-width=".35"/><polygon points="597.9,425.4 595.3,426.9 595.3,425.2 597.9,423.7" fill="url(#windowGlass)" stroke="#171c1b" stroke-width=".35"/><polygon points="588.7,430.7 586.1,432.2 586.1,430.5 588.7,429.0" fill="url(#windowGlass)" stroke="#171c1b" stroke-width=".35"/><polygon points="579.6,436.0 577.0,437.5 577.0,435.7 579.6,434.3" fill="url(#windowGlass)" stroke="#171c1b" stroke-width=".35"/><polygon points="571.1,437.9 568.3,436.3 568.3,434.5 571.1,436.1" fill="url(#windowGlass)" stroke="#171c1b" stroke-width=".35"/><polygon points="563.1,433.3 560.3,431.7 560.3,429.9 563.1,431.5" fill="url(#windowGlass)" stroke="#171c1b" stroke-width=".35"/><polygon points="555.2,428.7 552.4,427.1 552.4,425.3 555.2,426.9" fill="url(#windowGlass)" stroke="#171c1b" stroke-width=".35"/><polygon points="547.2,424.1 544.4,422.5 544.4,420.7 547.2,422.3" fill="url(#windowGlass)" stroke="#171c1b" stroke-width=".35"/><polygon points="539.2,419.5 536.4,417.9 536.4,416.1 539.2,417.7" fill="url(#windowGlass)" stroke="#171c1b" stroke-width=".35"/></g><g data-landmark="building-05"><polygon points="766.5,443.1 802.0,463.6 751.4,492.9 715.8,472.3" fill="#070b09" opacity=".42"/><polygon points="767.5,437.5 803.1,458.0 803.1,438.1 767.5,417.6" fill="url(#masonryReal)" stroke="#333b37" stroke-width=".9"/><polygon points="803.1,458.0 752.5,487.3 752.5,467.4 803.1,438.1" fill="url(#masonryReal)" stroke="#333b37" stroke-width=".9"/><polygon points="752.5,487.3 716.9,466.7 716.9,446.8 752.5,467.4" fill="url(#masonryReal)" stroke="#333b37" stroke-width=".9"/><polygon points="716.9,466.7 767.5,437.5 767.5,417.6 716.9,446.8" fill="url(#masonryReal)" stroke="#333b37" stroke-width=".9"/><polygon points="767.5,417.6 803.1,438.1 760.0,438.4 716.9,446.8" fill="url(#roofReal)" stroke="#272a25"/><polygon points="803.1,438.1 752.5,467.4 716.9,446.8 760.0,438.4" fill="url(#roofRealDark)" stroke="#272a25"/><polygon points="766.1,437.7 768.0,438.8 768.0,435.8 766.1,434.7" fill="#494b46" stroke="#272b28" stroke-width=".4"/><polygon points="768.0,438.8 766.1,439.9 766.1,436.9 768.0,435.8" fill="#494b46" stroke="#272b28" stroke-width=".4"/><polygon points="766.1,439.9 764.1,438.8 764.1,435.8 766.1,436.9" fill="#494b46" stroke="#272b28" stroke-width=".4"/><polygon points="764.1,438.8 766.1,437.7 766.1,434.7 764.1,435.8" fill="#494b46" stroke="#272b28" stroke-width=".4"/><polygon points="766.1,434.7 768.0,435.8 766.1,436.9 764.1,435.8" fill="#77786d" stroke="#242926" stroke-width=".5"/><polygon points="800.6,457.0 797.1,459.0 797.1,457.3 800.6,455.3" fill="url(#windowGlass)" stroke="#171c1b" stroke-width=".35"/><polygon points="792.2,461.9 788.7,463.9 788.7,462.2 792.2,460.1" fill="url(#windowGlass)" stroke="#171c1b" stroke-width=".35"/><polygon points="783.8,466.7 780.2,468.8 780.2,467.0 783.8,465.0" fill="url(#windowGlass)" stroke="#171c1b" stroke-width=".35"/><polygon points="775.3,471.6 771.8,473.7 771.8,471.9 775.3,469.9" fill="url(#windowGlass)" stroke="#171c1b" stroke-width=".35"/><polygon points="766.9,476.5 763.3,478.5 763.3,476.8 766.9,474.7" fill="url(#windowGlass)" stroke="#171c1b" stroke-width=".35"/><polygon points="758.5,481.4 754.9,483.4 754.9,481.7 758.5,479.6" fill="url(#windowGlass)" stroke="#171c1b" stroke-width=".35"/><polygon points="749.3,483.0 746.8,481.5 746.8,479.8 749.3,481.2" fill="url(#windowGlass)" stroke="#171c1b" stroke-width=".35"/><polygon points="740.4,477.8 737.9,476.4 737.9,474.7 740.4,476.1" fill="url(#windowGlass)" stroke="#171c1b" stroke-width=".35"/><polygon points="731.5,472.7 729.0,471.3 729.0,469.5 731.5,471.0" fill="url(#windowGlass)" stroke="#171c1b" stroke-width=".35"/><polygon points="722.6,467.6 720.1,466.1 720.1,464.4 722.6,465.8" fill="url(#windowGlass)" stroke="#171c1b" stroke-width=".35"/><polygon points="800.6,453.7 797.1,455.7 797.1,454.0 800.6,451.9" fill="url(#windowGlass)" stroke="#171c1b" stroke-width=".35"/><polygon points="792.2,458.6 788.7,460.6 788.7,458.9 792.2,456.8" fill="url(#windowGlass)" stroke="#171c1b" stroke-width=".35"/><polygon points="783.8,463.4 780.2,465.5 780.2,463.7 783.8,461.7" fill="url(#windowGlass)" stroke="#171c1b" stroke-width=".35"/><polygon points="775.3,468.3 771.8,470.3 771.8,468.6 775.3,466.6" fill="url(#windowGlass)" stroke="#171c1b" stroke-width=".35"/><polygon points="766.9,473.2 763.3,475.2 763.3,473.5 766.9,471.4" fill="url(#windowGlass)" stroke="#171c1b" stroke-width=".35"/><polygon points="758.5,478.0 754.9,480.1 754.9,478.3 758.5,476.3" fill="url(#windowGlass)" stroke="#171c1b" stroke-width=".35"/><polygon points="749.3,479.7 746.8,478.2 746.8,476.5 749.3,477.9" fill="url(#windowGlass)" stroke="#171c1b" stroke-width=".35"/><polygon points="740.4,474.5 737.9,473.1 737.9,471.3 740.4,472.8" fill="url(#windowGlass)" stroke="#171c1b" stroke-width=".35"/><polygon points="731.5,469.4 729.0,468.0 729.0,466.2 731.5,467.6" fill="url(#windowGlass)" stroke="#171c1b" stroke-width=".35"/><polygon points="722.6,464.3 720.1,462.8 720.1,461.1 722.6,462.5" fill="url(#windowGlass)" stroke="#171c1b" stroke-width=".35"/><polygon points="800.6,450.4 797.1,452.4 797.1,450.7 800.6,448.6" fill="url(#windowGlass)" stroke="#171c1b" stroke-width=".35"/><polygon points="792.2,455.2 788.7,457.3 788.7,455.5 792.2,453.5" fill="url(#windowGlass)" stroke="#171c1b" stroke-width=".35"/><polygon points="783.8,460.1 780.2,462.2 780.2,460.4 783.8,458.4" fill="url(#windowGlass)" stroke="#171c1b" stroke-width=".35"/><polygon points="775.3,465.0 771.8,467.0 771.8,465.3 775.3,463.2" fill="url(#windowGlass)" stroke="#171c1b" stroke-width=".35"/><polygon points="766.9,469.9 763.3,471.9 763.3,470.2 766.9,468.1" fill="url(#windowGlass)" stroke="#171c1b" stroke-width=".35"/><polygon points="758.5,474.7 754.9,476.8 754.9,475.0 758.5,473.0" fill="url(#windowGlass)" stroke="#171c1b" stroke-width=".35"/><polygon points="749.3,476.3 746.8,474.9 746.8,473.2 749.3,474.6" fill="url(#windowGlass)" stroke="#171c1b" stroke-width=".35"/><polygon points="740.4,471.2 737.9,469.8 737.9,468.0 740.4,469.5" fill="url(#windowGlass)" stroke="#171c1b" stroke-width=".35"/><polygon points="731.5,466.1 729.0,464.6 729.0,462.9 731.5,464.3" fill="url(#windowGlass)" stroke="#171c1b" stroke-width=".35"/><polygon points="722.6,460.9 720.1,459.5 720.1,457.8 722.6,459.2" fill="url(#windowGlass)" stroke="#171c1b" stroke-width=".35"/><polygon points="800.6,447.1 797.1,449.1 797.1,447.4 800.6,445.3" fill="url(#windowGlass)" stroke="#171c1b" stroke-width=".35"/><polygon points="792.2,451.9 788.7,454.0 788.7,452.2 792.2,450.2" fill="url(#windowGlass)" stroke="#171c1b" stroke-width=".35"/><polygon points="783.8,456.8 780.2,458.8 780.2,457.1 783.8,455.1" fill="url(#windowGlass)" stroke="#171c1b" stroke-width=".35"/><polygon points="775.3,461.7 771.8,463.7 771.8,462.0 775.3,459.9" fill="url(#windowGlass)" stroke="#171c1b" stroke-width=".35"/><polygon points="766.9,466.5 763.3,468.6 763.3,466.8 766.9,464.8" fill="url(#windowGlass)" stroke="#171c1b" stroke-width=".35"/><polygon points="758.5,471.4 754.9,473.5 754.9,471.7 758.5,469.7" fill="url(#windowGlass)" stroke="#171c1b" stroke-width=".35"/><polygon points="749.3,473.0 746.8,471.6 746.8,469.8 749.3,471.3" fill="url(#windowGlass)" stroke="#171c1b" stroke-width=".35"/><polygon points="740.4,467.9 737.9,466.5 737.9,464.7 740.4,466.1" fill="url(#windowGlass)" stroke="#171c1b" stroke-width=".35"/><polygon points="731.5,462.8 729.0,461.3 729.0,459.6 731.5,461.0" fill="url(#windowGlass)" stroke="#171c1b" stroke-width=".35"/><polygon points="722.6,457.6 720.1,456.2 720.1,454.5 722.6,455.9" fill="url(#windowGlass)" stroke="#171c1b" stroke-width=".35"/><polygon points="800.6,443.7 797.1,445.8 797.1,444.0 800.6,442.0" fill="url(#windowGlass)" stroke="#171c1b" stroke-width=".35"/><polygon points="792.2,448.6 788.7,450.7 788.7,448.9 792.2,446.9" fill="url(#windowGlass)" stroke="#171c1b" stroke-width=".35"/><polygon points="783.8,453.5 780.2,455.5 780.2,453.8 783.8,451.7" fill="url(#windowGlass)" stroke="#171c1b" stroke-width=".35"/><polygon points="775.3,458.3 771.8,460.4 771.8,458.7 775.3,456.6" fill="url(#windowGlass)" stroke="#171c1b" stroke-width=".35"/><polygon points="766.9,463.2 763.3,465.3 763.3,463.5 766.9,461.5" fill="url(#windowGlass)" stroke="#171c1b" stroke-width=".35"/><polygon points="758.5,468.1 754.9,470.1 754.9,468.4 758.5,466.3" fill="url(#windowGlass)" stroke="#171c1b" stroke-width=".35"/><polygon points="749.3,469.7 746.8,468.3 746.8,466.5 749.3,468.0" fill="url(#windowGlass)" stroke="#171c1b" stroke-width=".35"/><polygon points="740.4,464.6 737.9,463.1 737.9,461.4 740.4,462.8" fill="url(#windowGlass)" stroke="#171c1b" stroke-width=".35"/><polygon points="731.5,459.4 729.0,458.0 729.0,456.3 731.5,457.7" fill="url(#windowGlass)" stroke="#171c1b" stroke-width=".35"/><polygon points="722.6,454.3 720.1,452.9 720.1,451.1 722.6,452.6" fill="url(#windowGlass)" stroke="#171c1b" stroke-width=".35"/></g><g data-tree="tree-1"><ellipse cx="266.2" cy="104.3" rx="10.0" ry="4.0" fill="#07100a" opacity=".32"/><line x1="259.2" y1="99.3" x2="259.2" y2="93.1" stroke="#353129" stroke-width="3.5"/><circle cx="255.2" cy="93.1" r="7.0" fill="#354c3b" stroke="#63755d"/><circle cx="263.2" cy="94.1" r="7.5" fill="#405a45"/><circle cx="259.2" cy="88.1" r="8.0" fill="#4a634a"/></g><g data-tree="tree-2"><ellipse cx="218.8" cy="151.5" rx="10.0" ry="4.0" fill="#07100a" opacity=".32"/><line x1="211.8" y1="146.5" x2="211.8" y2="140.3" stroke="#353129" stroke-width="3.5"/><circle cx="207.8" cy="140.3" r="7.0" fill="#354c3b" stroke="#63755d"/><circle cx="215.8" cy="141.3" r="7.5" fill="#405a45"/><circle cx="211.8" cy="135.3" r="8.0" fill="#4a634a"/></g><g data-tree="tree-3"><ellipse cx="300.7" cy="124.2" rx="10.0" ry="4.0" fill="#07100a" opacity=".32"/><line x1="293.7" y1="119.2" x2="293.7" y2="112.9" stroke="#353129" stroke-width="3.5"/><circle cx="289.7" cy="112.9" r="7.0" fill="#354c3b" stroke="#63755d"/><circle cx="297.7" cy="113.9" r="7.5" fill="#405a45"/><circle cx="293.7" cy="107.9" r="8.0" fill="#4a634a"/></g><g data-tree="tree-4"><ellipse cx="253.3" cy="171.4" rx="10.0" ry="4.0" fill="#07100a" opacity=".32"/><line x1="246.3" y1="166.4" x2="246.3" y2="160.2" stroke="#353129" stroke-width="3.5"/><circle cx="242.3" cy="160.2" r="7.0" fill="#354c3b" stroke="#63755d"/><circle cx="250.3" cy="161.2" r="7.5" fill="#405a45"/><circle cx="246.3" cy="155.2" r="8.0" fill="#4a634a"/></g><g data-tree="tree-5"><ellipse cx="335.2" cy="144.1" rx="10.0" ry="4.0" fill="#07100a" opacity=".32"/><line x1="328.2" y1="139.1" x2="328.2" y2="132.8" stroke="#353129" stroke-width="3.5"/><circle cx="324.2" cy="132.8" r="7.0" fill="#354c3b" stroke="#63755d"/><circle cx="332.2" cy="133.8" r="7.5" fill="#405a45"/><circle cx="328.2" cy="127.8" r="8.0" fill="#4a634a"/></g><g data-tree="tree-6"><ellipse cx="287.8" cy="191.3" rx="10.0" ry="4.0" fill="#07100a" opacity=".32"/><line x1="280.8" y1="186.3" x2="280.8" y2="180.1" stroke="#353129" stroke-width="3.5"/><circle cx="276.8" cy="180.1" r="7.0" fill="#354c3b" stroke="#63755d"/><circle cx="284.8" cy="181.1" r="7.5" fill="#405a45"/><circle cx="280.8" cy="175.1" r="8.0" fill="#4a634a"/></g><g data-prop="piata-bench-west"><rect x="221.1" y="120.9" width="16" height="4" rx="1" fill="#8d704b" stroke="#c4a56f"/><path d="M223.1 122.9v5m12-5v5" stroke="#282d28" stroke-width="2"/></g><g data-prop="piata-bench-east"><rect x="285.7" y="166.9" width="16" height="4" rx="1" fill="#8d704b" stroke="#c4a56f"/><path d="M287.7 168.9v5m12-5v5" stroke="#282d28" stroke-width="2"/></g><g data-prop="piata-car-west"><polygon points="177.9,138.3 182.9,141.6 180.3,142.8 175.3,139.5" fill="#050806" opacity=".38"/><polygon points="178.3,136.8 183.3,140.1 183.3,138.2 178.3,134.9" fill="#4d403c"/><polygon points="183.3,140.1 180.8,141.4 180.8,139.5 183.3,138.2" fill="#413430"/><polygon points="180.8,141.4 175.8,138.0 175.8,136.2 180.8,139.5" fill="#4d403c"/><polygon points="175.8,138.0 178.3,136.8 178.3,134.9 175.8,136.2" fill="#413430"/><polygon points="178.3,134.9 183.3,138.2 180.8,139.5 175.8,136.2" fill="#554844" stroke="#7d706c" stroke-width=".7"/><polygon points="179.4,135.7 181.8,137.3 179.7,138.3 177.3,136.7" fill="#8ea5a4" stroke="#d2d4c8" stroke-width=".6"/><polyline points="178.3,134.9 183.3,138.2" stroke="#efe1b0" stroke-width="1.2"/></g><g data-prop="piata-car-north"><polygon points="350.9,144.1 356.2,146.8 354.1,148.2 348.8,145.5" fill="#050806" opacity=".38"/><polygon points="351.3,142.6 356.7,145.4 356.7,143.6 351.3,140.8" fill="#435459"/><polygon points="356.7,145.4 354.5,146.7 354.5,144.9 356.7,143.6" fill="#37484d"/><polygon points="354.5,146.7 349.2,144.0 349.2,142.2 354.5,144.9" fill="#435459"/><polygon points="349.2,144.0 351.3,142.6 351.3,140.8 349.2,142.2" fill="#37484d"/><polygon points="351.3,140.8 356.7,143.6 354.5,144.9 349.2,142.2" fill="#4b5c61" stroke="#738489" stroke-width=".7"/><polygon points="352.5,141.4 355.1,142.8 353.3,143.9 350.8,142.6" fill="#8ea5a4" stroke="#d2d4c8" stroke-width=".6"/><polyline points="351.3,140.8 356.7,143.6" stroke="#efe1b0" stroke-width="1.2"/></g><rect width="960" height="640" fill="url(#vignette)" pointer-events="none"/></svg>