<svg xmlns="http://www.w3.org/2000/svg" width="960" height="640" viewBox="0 0 960 640"><defs><linearGradient id="sky" x2="0" y2="1"><stop stop-color="#667579"/><stop offset="1" stop-color="#172326"/></linearGradient><linearGradient id="wet" x2="0" y2="1"><stop stop-color="#586565"/><stop offset=".55" stop-color="#313d3f"/><stop offset="1" stop-color="#202c2e"/></linearGradient><linearGradient id="wall"><stop stop-color="#aba89e"/><stop offset="1" stop-color="#6d7471"/></linearGradient><linearGradient id="glass" x2="1" y2="1"><stop stop-color="#8da8ad"/><stop offset=".5" stop-color="#3e5a61"/><stop offset="1" stop-color="#b6c5c3"/></linearGradient><pattern id="brick" width="12" height="7" patternUnits="userSpaceOnUse"><rect width="12" height="7" fill="#673d37"/><path d="M0 3.5h12M6 0v3.5M0 3.5v3.5" stroke="#8b6257" stroke-width=".7"/></pattern><filter id="glow"><feGaussianBlur stdDeviation="3"/></filter><filter id="stone"><feTurbulence baseFrequency=".45" numOctaves="3" seed="12" result="n"/><feColorMatrix in="n" values=".15 0 0 0 .75 0 .15 0 0 .72 0 0 .15 0 .66 0 0 0 .22 0"/><feBlend in="SourceGraphic" mode="multiply"/></filter><filter id="wetshine"><feGaussianBlur stdDeviation="1.2"/><feComponentTransfer><feFuncA type="linear" slope=".35"/></feComponentTransfer></filter><style>text{font:600 10px system-ui;fill:#e8e3d5;text-anchor:middle;paint-order:stroke;stroke:#182225;stroke-width:3px}.rails polyline{fill:none;stroke:#aab1ad;stroke-width:2}.sleepers polyline{fill:none;stroke:#4a4a45;stroke-width:2;opacity:.75}</style></defs><rect width="960" height="640" fill="url(#sky)"/><polygon points="50.0,382.1 587.5,71.7 910.0,257.9 372.5,568.3" fill="url(#wet)" filter="url(#stone)" stroke="#8c9996" stroke-width="2"/><g opacity=".22" stroke="#c5d3d0"><polyline points="50.0,382.1 372.5,568.3"/><polyline points="67.9,371.7 390.4,557.9"/><polyline points="85.8,361.4 408.3,547.6"/><polyline points="103.7,351.0 426.3,537.2"/><polyline points="121.7,340.7 444.2,526.9"/><polyline points="139.6,330.3 462.1,516.5"/><polyline points="157.5,320.0 480.0,506.2"/><polyline points="175.4,309.7 497.9,495.9"/><polyline points="193.3,299.3 515.8,485.5"/><polyline points="211.2,289.0 533.8,475.2"/><polyline points="229.2,278.6 551.7,464.8"/><polyline points="247.1,268.3 569.6,454.5"/><polyline points="265.0,257.9 587.5,444.1"/><polyline points="282.9,247.6 605.4,433.8"/><polyline points="300.8,237.2 623.3,423.4"/><polyline points="318.7,226.9 641.2,413.1"/><polyline points="336.7,216.6 659.2,402.8"/><polyline points="354.6,206.2 677.1,392.4"/><polyline points="372.5,195.9 695.0,382.1"/><polyline points="390.4,185.5 712.9,371.7"/><polyline points="408.3,175.2 730.8,361.4"/><polyline points="426.2,164.8 748.8,351.0"/><polyline points="444.2,154.5 766.7,340.7"/><polyline points="462.1,144.1 784.6,330.3"/><polyline points="480.0,133.8 802.5,320.0"/><polyline points="497.9,123.5 820.4,309.7"/><polyline points="515.8,113.1 838.3,299.3"/><polyline points="533.7,102.8 856.2,289.0"/><polyline points="551.7,92.4 874.2,278.6"/><polyline points="569.6,82.1 892.1,268.3"/><polyline points="587.5,71.7 910.0,257.9"/></g><g class="sleepers"><polyline points="136.0,431.7 168.2,450.3"/><polyline points="218.4,479.3 250.7,497.9"/><polyline points="143.2,427.6 175.4,446.2"/><polyline points="225.6,475.2 257.8,493.8"/><polyline points="150.3,423.4 182.6,442.1"/><polyline points="232.8,471.0 265.0,489.6"/><polyline points="157.5,419.3 189.8,437.9"/><polyline points="239.9,466.9 272.2,485.5"/><polyline points="164.7,415.2 196.9,433.8"/><polyline points="247.1,462.8 279.3,481.4"/><polyline points="171.8,411.0 204.1,429.7"/><polyline points="254.2,458.6 286.5,477.2"/><polyline points="179.0,406.9 211.2,425.5"/><polyline points="261.4,454.5 293.7,473.1"/><polyline points="186.2,402.8 218.4,421.4"/><polyline points="268.6,450.3 300.8,469.0"/><polyline points="193.3,398.6 225.6,417.2"/><polyline points="275.8,446.2 308.0,464.8"/><polyline points="200.5,394.5 232.7,413.1"/><polyline points="282.9,442.1 315.2,460.7"/><polyline points="207.7,390.3 239.9,409.0"/><polyline points="290.1,437.9 322.3,456.5"/><polyline points="214.8,386.2 247.1,404.8"/><polyline points="297.2,433.8 329.5,452.4"/><polyline points="222.0,382.1 254.2,400.7"/><polyline points="304.4,429.7 336.7,448.3"/><polyline points="229.2,377.9 261.4,396.5"/><polyline points="311.6,425.5 343.8,444.1"/><polyline points="236.3,373.8 268.6,392.4"/><polyline points="318.8,421.4 351.0,440.0"/><polyline points="243.5,369.7 275.8,388.3"/><polyline points="325.9,417.2 358.2,435.9"/><polyline points="250.7,365.5 282.9,384.1"/><polyline points="333.1,413.1 365.3,431.7"/><polyline points="257.8,361.4 290.1,380.0"/><polyline points="340.2,409.0 372.5,427.6"/><polyline points="265.0,357.2 297.2,375.9"/><polyline points="347.4,404.8 379.7,423.4"/><polyline points="272.2,353.1 304.4,371.7"/><polyline points="354.6,400.7 386.8,419.3"/><polyline points="279.3,349.0 311.6,367.6"/><polyline points="361.8,396.5 394.0,415.2"/><polyline points="286.5,344.8 318.8,363.4"/><polyline points="368.9,392.4 401.2,411.0"/><polyline points="293.7,340.7 325.9,359.3"/><polyline points="376.1,388.3 408.3,406.9"/><polyline points="300.8,336.6 333.1,355.2"/><polyline points="383.2,384.1 415.5,402.8"/><polyline points="308.0,332.4 340.2,351.0"/><polyline points="390.4,380.0 422.7,398.6"/><polyline points="315.2,328.3 347.4,346.9"/><polyline points="397.6,375.9 429.8,394.5"/><polyline points="322.3,324.1 354.6,342.8"/><polyline points="404.8,371.7 437.0,390.3"/><polyline points="329.5,320.0 361.7,338.6"/><polyline points="411.9,367.6 444.2,386.2"/><polyline points="336.7,315.9 368.9,334.5"/><polyline points="419.1,363.4 451.3,382.1"/><polyline points="343.8,311.7 376.1,330.3"/><polyline points="426.2,359.3 458.5,377.9"/><polyline points="351.0,307.6 383.2,326.2"/><polyline points="433.4,355.2 465.7,373.8"/><polyline points="358.2,303.4 390.4,322.1"/><polyline points="440.6,351.0 472.8,369.7"/><polyline points="365.3,299.3 397.6,317.9"/><polyline points="447.8,346.9 480.0,365.5"/><polyline points="372.5,295.2 404.7,313.8"/><polyline points="454.9,342.8 487.2,361.4"/><polyline points="379.7,291.0 411.9,309.7"/><polyline points="462.1,338.6 494.3,357.2"/><polyline points="386.8,286.9 419.1,305.5"/><polyline points="469.2,334.5 501.5,353.1"/><polyline points="394.0,282.8 426.2,301.4"/><polyline points="476.4,330.3 508.7,349.0"/><polyline points="401.2,278.6 433.4,297.2"/><polyline points="483.6,326.2 515.8,344.8"/><polyline points="408.3,274.5 440.6,293.1"/><polyline points="490.8,322.1 523.0,340.7"/><polyline points="415.5,270.3 447.7,289.0"/><polyline points="497.9,317.9 530.2,336.6"/><polyline points="422.7,266.2 454.9,284.8"/><polyline points="505.1,313.8 537.3,332.4"/><polyline points="429.8,262.1 462.1,280.7"/><polyline points="512.2,309.7 544.5,328.3"/><polyline points="437.0,257.9 469.2,276.6"/><polyline points="519.4,305.5 551.7,324.1"/><polyline points="444.2,253.8 476.4,272.4"/><polyline points="526.6,301.4 558.8,320.0"/><polyline points="451.3,249.7 483.6,268.3"/><polyline points="533.8,297.2 566.0,315.9"/><polyline points="458.5,245.5 490.7,264.1"/><polyline points="540.9,293.1 573.2,311.7"/><polyline points="465.7,241.4 497.9,260.0"/><polyline points="548.1,289.0 580.3,307.6"/><polyline points="472.8,237.2 505.1,255.9"/><polyline points="555.2,284.8 587.5,303.4"/><polyline points="480.0,233.1 512.2,251.7"/><polyline points="562.4,280.7 594.7,299.3"/><polyline points="487.2,229.0 519.4,247.6"/><polyline points="569.6,276.6 601.8,295.2"/><polyline points="494.3,224.8 526.6,243.5"/><polyline points="576.8,272.4 609.0,291.0"/><polyline points="501.5,220.7 533.7,239.3"/><polyline points="583.9,268.3 616.2,286.9"/><polyline points="508.7,216.6 540.9,235.2"/><polyline points="591.1,264.1 623.3,282.8"/><polyline points="515.8,212.4 548.1,231.0"/><polyline points="598.2,260.0 630.5,278.6"/><polyline points="523.0,208.3 555.2,226.9"/><polyline points="605.4,255.9 637.7,274.5"/><polyline points="530.2,204.1 562.4,222.8"/><polyline points="612.6,251.7 644.8,270.3"/><polyline points="537.3,200.0 569.6,218.6"/><polyline points="619.8,247.6 652.0,266.2"/><polyline points="544.5,195.9 576.8,214.5"/><polyline points="626.9,243.5 659.2,262.1"/><polyline points="551.7,191.7 583.9,210.3"/><polyline points="634.1,239.3 666.3,257.9"/><polyline points="558.8,187.6 591.1,206.2"/><polyline points="641.2,235.2 673.5,253.8"/><polyline points="566.0,183.5 598.2,202.1"/><polyline points="648.4,231.0 680.7,249.7"/><polyline points="573.2,179.3 605.4,197.9"/><polyline points="655.6,226.9 687.8,245.5"/><polyline points="580.3,175.2 612.6,193.8"/><polyline points="662.8,222.8 695.0,241.4"/><polyline points="587.5,171.0 619.8,189.7"/><polyline points="669.9,218.6 702.2,237.2"/><polyline points="594.7,166.9 626.9,185.5"/><polyline points="677.1,214.5 709.3,233.1"/><polyline points="601.8,162.8 634.1,181.4"/><polyline points="684.2,210.3 716.5,229.0"/><polyline points="609.0,158.6 641.2,177.2"/><polyline points="691.4,206.2 723.7,224.8"/><polyline points="616.2,154.5 648.4,173.1"/><polyline points="698.6,202.1 730.8,220.7"/><polyline points="623.3,150.4 655.6,169.0"/><polyline points="705.8,197.9 738.0,216.6"/><polyline points="630.5,146.2 662.8,164.8"/><polyline points="712.9,193.8 745.2,212.4"/><polyline points="637.7,142.1 669.9,160.7"/><polyline points="720.1,189.7 752.3,208.3"/><polyline points="644.8,137.9 677.1,156.6"/><polyline points="727.2,185.5 759.5,204.1"/><polyline points="652.0,133.8 684.2,152.4"/><polyline points="734.4,181.4 766.7,200.0"/><polyline points="659.2,129.7 691.4,148.3"/><polyline points="741.6,177.2 773.8,195.9"/><polyline points="666.3,125.5 698.6,144.1"/><polyline points="748.8,173.1 781.0,191.7"/><polyline points="673.5,121.4 705.8,140.0"/><polyline points="755.9,169.0 788.2,187.6"/></g><g class="rails"><polyline points="141.4,434.8 678.9,124.5"/><polyline points="152.1,441.0 689.6,130.7"/><polyline points="162.9,447.2 700.4,136.9"/><polyline points="223.8,482.4 761.3,172.1"/><polyline points="234.5,488.6 772.0,178.3"/><polyline points="245.3,494.8 782.8,184.5"/></g><g data-landmark="station-terminal"><polygon points="107.3,386.2 189.7,338.6 189.7,324.1 107.3,371.7" fill="url(#wall)" stroke="#454b49" stroke-width="1"/><polygon points="189.7,338.6 252.5,374.8 252.5,360.3 189.7,324.1" fill="url(#wall)" stroke="#454b49" stroke-width="1"/><polygon points="252.5,374.8 170.0,422.4 170.0,407.9 252.5,360.3" fill="url(#wall)" stroke="#454b49" stroke-width="1"/><polygon points="170.0,422.4 107.3,386.2 107.3,371.7 170.0,407.9" fill="url(#wall)" stroke="#454b49" stroke-width="1"/><polygon points="107.3,371.7 189.7,324.1 252.5,360.3 170.0,407.9" fill="#a7a094" stroke="#bac0b9" stroke-width="1.2"/><rect x="118.2" y="372.2" width="8" height="12" rx="1" fill="#d8aa63" stroke="#414846"/><rect x="130.6" y="365.1" width="8" height="12" rx="1" fill="#d8aa63" stroke="#414846"/><rect x="143.0" y="357.9" width="8" height="12" rx="1" fill="#d8aa63" stroke="#414846"/><rect x="156.2" y="350.3" width="8" height="12" rx="1" fill="#d8aa63" stroke="#414846"/><rect x="168.5" y="343.2" width="8" height="12" rx="1" fill="#d8aa63" stroke="#414846"/><rect x="180.9" y="336.1" width="8" height="12" rx="1" fill="#d8aa63" stroke="#414846"/></g><g data-landmark="clock-tower"><polygon points="157.5,375.9 171.8,367.6 171.8,338.6 157.5,346.9" fill="url(#wall)" stroke="#454b49" stroke-width="1"/><polygon points="171.8,367.6 200.5,384.1 200.5,355.2 171.8,338.6" fill="url(#wall)" stroke="#454b49" stroke-width="1"/><polygon points="200.5,384.1 186.2,392.4 186.2,363.4 200.5,355.2" fill="url(#wall)" stroke="#454b49" stroke-width="1"/><polygon points="186.2,392.4 157.5,375.9 157.5,346.9 186.2,363.4" fill="url(#wall)" stroke="#454b49" stroke-width="1"/><polygon points="157.5,346.9 171.8,338.6 200.5,355.2 186.2,363.4" fill="#857f74" stroke="#bac0b9" stroke-width="1.2"/></g><g data-landmark="platform-one"><polygon points="210.4,335.0 465.7,187.6 465.7,186.3 210.4,333.8" fill="url(#wall)" stroke="#454b49" stroke-width="1"/><polygon points="465.7,187.6 497.9,206.2 497.9,205.0 465.7,186.3" fill="url(#wall)" stroke="#454b49" stroke-width="1"/><polygon points="497.9,206.2 242.6,353.6 242.6,352.4 497.9,205.0" fill="url(#wall)" stroke="#454b49" stroke-width="1"/><polygon points="242.6,353.6 210.4,335.0 210.4,333.8 242.6,352.4" fill="url(#wall)" stroke="#454b49" stroke-width="1"/><polygon points="210.4,333.8 465.7,186.3 497.9,205.0 242.6,352.4" fill="#8d918d" stroke="#bac0b9" stroke-width="1.2"/></g><g data-landmark="platform-two"><polygon points="301.7,387.8 579.4,227.4 579.4,226.2 301.7,386.5" fill="url(#wall)" stroke="#454b49" stroke-width="1"/><polygon points="579.4,227.4 611.7,246.0 611.7,244.8 579.4,226.2" fill="url(#wall)" stroke="#454b49" stroke-width="1"/><polygon points="611.7,246.0 334.0,406.4 334.0,405.1 611.7,244.8" fill="url(#wall)" stroke="#454b49" stroke-width="1"/><polygon points="334.0,406.4 301.7,387.8 301.7,386.5 334.0,405.1" fill="url(#wall)" stroke="#454b49" stroke-width="1"/><polygon points="301.7,386.5 579.4,226.2 611.7,244.8 334.0,405.1" fill="#7c817e" stroke="#bac0b9" stroke-width="1.2"/></g><g data-landmark="glass-footbridge"><polygon points="328.6,299.8 348.3,288.4 348.3,281.2 328.6,292.6" fill="url(#wall)" stroke="#454b49" stroke-width="1"/><polygon points="348.3,288.4 446.9,345.3 446.9,338.1 348.3,281.2" fill="url(#wall)" stroke="#454b49" stroke-width="1"/><polygon points="446.9,345.3 427.1,356.7 427.1,349.5 446.9,338.1" fill="url(#wall)" stroke="#454b49" stroke-width="1"/><polygon points="427.1,356.7 328.6,299.8 328.6,292.6 427.1,349.5" fill="url(#wall)" stroke="#454b49" stroke-width="1"/><polygon points="328.6,292.6 348.3,281.2 446.9,338.1 427.1,349.5" fill="url(#glass)" stroke="#bac0b9" stroke-width="1.2"/></g><g data-landmark="freight-platform"><polygon points="578.5,314.8 717.4,234.7 717.4,233.4 578.5,313.6" fill="url(#wall)" stroke="#454b49" stroke-width="1"/><polygon points="717.4,234.7 749.6,253.3 749.6,252.0 717.4,233.4" fill="url(#wall)" stroke="#454b49" stroke-width="1"/><polygon points="749.6,253.3 610.8,333.4 610.8,332.2 749.6,252.0" fill="url(#wall)" stroke="#454b49" stroke-width="1"/><polygon points="610.8,333.4 578.5,314.8 578.5,313.6 610.8,332.2" fill="url(#wall)" stroke="#454b49" stroke-width="1"/><polygon points="578.5,313.6 717.4,233.4 749.6,252.0 610.8,332.2" fill="#747975" stroke="#bac0b9" stroke-width="1.2"/></g><g data-landmark="cargo-warehouse"><polygon points="671.7,306.6 765.8,252.2 765.8,240.9 671.7,295.2" fill="url(#wall)" stroke="#454b49" stroke-width="1"/><polygon points="765.8,252.2 819.5,283.3 819.5,271.9 765.8,240.9" fill="url(#wall)" stroke="#454b49" stroke-width="1"/><polygon points="819.5,283.3 725.5,337.6 725.5,326.2 819.5,271.9" fill="url(#wall)" stroke="#454b49" stroke-width="1"/><polygon points="725.5,337.6 671.7,306.6 671.7,295.2 725.5,326.2" fill="url(#wall)" stroke="#454b49" stroke-width="1"/><polygon points="671.7,295.2 765.8,240.9 819.5,271.9 725.5,326.2" fill="url(#brick)" stroke="#bac0b9" stroke-width="1.2"/><path d="M 678.9,301.4 678.9,294.1 M 693.2,293.1 693.2,285.9" stroke="#c69464" stroke-width="5"/></g><g data-landmark="operations-office"><polygon points="227.4,376.9 256.0,360.3 256.0,352.1 227.4,368.6" fill="url(#wall)" stroke="#454b49" stroke-width="1"/><polygon points="256.0,360.3 299.0,385.2 299.0,376.9 256.0,352.1" fill="url(#wall)" stroke="#454b49" stroke-width="1"/><polygon points="299.0,385.2 270.4,401.7 270.4,393.4 299.0,376.9" fill="url(#wall)" stroke="#454b49" stroke-width="1"/><polygon points="270.4,401.7 227.4,376.9 227.4,368.6 270.4,393.4" fill="url(#wall)" stroke="#454b49" stroke-width="1"/><polygon points="227.4,368.6 256.0,352.1 299.0,376.9 270.4,393.4" fill="#89908b" stroke="#bac0b9" stroke-width="1.2"/><polygon points="231.0,376.7 256.0,362.3 295.5,385.0 270.4,399.5" fill="#62706e" stroke="#d4c7a5" stroke-width="2"/><rect x="243.3" y="376.4" width="10" height="6" fill="#273638" stroke="#bac6c1"/><rect x="253.9" y="370.3" width="10" height="6" fill="#273638" stroke="#bac6c1"/><rect x="260.5" y="386.3" width="10" height="6" fill="#7f684d" stroke="#bac6c1"/><rect x="274.0" y="379.5" width="10" height="6" fill="#435b55" stroke="#bac6c1"/></g><g data-landmark="signal-annex"><polygon points="717.4,214.0 744.3,198.5 744.3,192.2 717.4,207.8" fill="url(#wall)" stroke="#454b49" stroke-width="1"/><polygon points="744.3,198.5 787.3,223.3 787.3,217.1 744.3,192.2" fill="url(#wall)" stroke="#454b49" stroke-width="1"/><polygon points="787.3,223.3 760.4,238.8 760.4,232.6 787.3,217.1" fill="url(#wall)" stroke="#454b49" stroke-width="1"/><polygon points="760.4,238.8 717.4,214.0 717.4,207.8 760.4,232.6" fill="url(#wall)" stroke="#454b49" stroke-width="1"/><polygon points="717.4,207.8 744.3,192.2 787.3,217.1 760.4,232.6" fill="#515b59" stroke="#bac0b9" stroke-width="1.2"/></g><g data-landmark="maintenance-yard"><polygon points="771.1,245.0 820.4,216.6 879.5,250.7 830.3,279.1" fill="#4c5553" stroke="#bac0b9" stroke-width="1.2"/></g><g data-landmark="north-hotel"><polygon points="175.4,314.8 248.9,272.4 248.9,260.0 175.4,302.4" fill="url(#wall)" stroke="#454b49" stroke-width="1"/><polygon points="248.9,272.4 274.0,286.9 274.0,274.5 248.9,260.0" fill="url(#wall)" stroke="#454b49" stroke-width="1"/><polygon points="274.0,286.9 200.5,329.3 200.5,316.9 274.0,274.5" fill="url(#wall)" stroke="#454b49" stroke-width="1"/><polygon points="200.5,329.3 175.4,314.8 175.4,302.4 200.5,316.9" fill="url(#wall)" stroke="#454b49" stroke-width="1"/><polygon points="175.4,302.4 248.9,260.0 274.0,274.5 200.5,316.9" fill="#75685d" stroke="#bac0b9" stroke-width="1.2"/></g><g data-landmark="north-shops"><polygon points="263.2,267.2 345.6,219.7 345.6,207.2 263.2,254.8" fill="url(#wall)" stroke="#454b49" stroke-width="1"/><polygon points="345.6,219.7 368.0,232.6 368.0,220.2 345.6,207.2" fill="url(#wall)" stroke="#454b49" stroke-width="1"/><polygon points="368.0,232.6 285.6,280.2 285.6,267.8 368.0,220.2" fill="url(#wall)" stroke="#454b49" stroke-width="1"/><polygon points="285.6,280.2 263.2,267.2 263.2,254.8 285.6,267.8" fill="url(#wall)" stroke="#454b49" stroke-width="1"/><polygon points="263.2,254.8 345.6,207.2 368.0,220.2 285.6,267.8" fill="#887b6d" stroke="#bac0b9" stroke-width="1.2"/></g><g data-landmark="north-offices"><polygon points="357.3,209.8 427.1,169.5 427.1,157.1 357.3,197.4" fill="url(#wall)" stroke="#454b49" stroke-width="1"/><polygon points="427.1,169.5 454.0,185.0 454.0,172.6 427.1,157.1" fill="url(#wall)" stroke="#454b49" stroke-width="1"/><polygon points="454.0,185.0 384.1,225.3 384.1,212.9 454.0,172.6" fill="url(#wall)" stroke="#454b49" stroke-width="1"/><polygon points="384.1,225.3 357.3,209.8 357.3,197.4 384.1,212.9" fill="url(#wall)" stroke="#454b49" stroke-width="1"/><polygon points="357.3,197.4 427.1,157.1 454.0,172.6 384.1,212.9" fill="#687176" stroke="#bac0b9" stroke-width="1.2"/></g><g data-landmark="north-apartments"><polygon points="441.5,163.3 540.0,106.4 540.0,94.0 441.5,150.9" fill="url(#wall)" stroke="#454b49" stroke-width="1"/><polygon points="540.0,106.4 564.2,120.4 564.2,107.9 540.0,94.0" fill="url(#wall)" stroke="#454b49" stroke-width="1"/><polygon points="564.2,120.4 465.7,177.2 465.7,164.8 564.2,107.9" fill="url(#wall)" stroke="#454b49" stroke-width="1"/><polygon points="465.7,177.2 441.5,163.3 441.5,150.9 465.7,164.8" fill="url(#wall)" stroke="#454b49" stroke-width="1"/><polygon points="441.5,150.9 540.0,94.0 564.2,107.9 465.7,164.8" fill="#746b63" stroke="#bac0b9" stroke-width="1.2"/></g><g data-landmark="west-cafe"><polygon points="299.9,521.2 342.9,496.4 342.9,484.0 299.9,508.8" fill="url(#wall)" stroke="#454b49" stroke-width="1"/><polygon points="342.9,496.4 369.8,511.9 369.8,499.5 342.9,484.0" fill="url(#wall)" stroke="#454b49" stroke-width="1"/><polygon points="369.8,511.9 326.8,536.7 326.8,524.3 369.8,499.5" fill="url(#wall)" stroke="#454b49" stroke-width="1"/><polygon points="326.8,536.7 299.9,521.2 299.9,508.8 326.8,524.3" fill="url(#wall)" stroke="#454b49" stroke-width="1"/><polygon points="299.9,508.8 342.9,484.0 369.8,499.5 326.8,524.3" fill="#7b6552" stroke="#bac0b9" stroke-width="1.2"/></g><g data-landmark="west-parking"><polygon points="227.4,476.2 309.8,428.6 376.1,466.9 293.7,514.5" fill="#485051" stroke="#bac0b9" stroke-width="1.2"/></g><g data-landmark="south-workshops"><polygon points="358.2,529.0 440.6,481.4 440.6,470.0 358.2,517.6" fill="url(#wall)" stroke="#454b49" stroke-width="1"/><polygon points="440.6,481.4 472.8,500.0 472.8,488.6 440.6,470.0" fill="url(#wall)" stroke="#454b49" stroke-width="1"/><polygon points="472.8,500.0 390.4,547.6 390.4,536.2 472.8,488.6" fill="url(#wall)" stroke="#454b49" stroke-width="1"/><polygon points="390.4,547.6 358.2,529.0 358.2,517.6 390.4,536.2" fill="url(#wall)" stroke="#454b49" stroke-width="1"/><polygon points="358.2,517.6 440.6,470.0 472.8,488.6 390.4,536.2" fill="url(#brick)" stroke="#bac0b9" stroke-width="1.2"/><path d="M 365.3,523.8 365.3,516.5 M 379.7,515.5 379.7,508.3" stroke="#c69464" stroke-width="5"/></g><g data-landmark="south-houses"><polygon points="467.5,478.3 544.5,433.8 544.5,421.4 467.5,465.9" fill="url(#wall)" stroke="#454b49" stroke-width="1"/><polygon points="544.5,433.8 567.8,447.2 567.8,434.8 544.5,421.4" fill="url(#wall)" stroke="#454b49" stroke-width="1"/><polygon points="567.8,447.2 490.8,491.7 490.8,479.3 567.8,434.8" fill="url(#wall)" stroke="#454b49" stroke-width="1"/><polygon points="490.8,491.7 467.5,478.3 467.5,465.9 490.8,479.3" fill="url(#wall)" stroke="#454b49" stroke-width="1"/><polygon points="467.5,465.9 544.5,421.4 567.8,434.8 490.8,479.3" fill="#71655d" stroke="#bac0b9" stroke-width="1.2"/></g><g data-landmark="south-depot"><polygon points="561.5,424.0 647.5,374.3 647.5,362.9 561.5,412.6" fill="url(#wall)" stroke="#454b49" stroke-width="1"/><polygon points="647.5,374.3 670.8,387.8 670.8,376.4 647.5,362.9" fill="url(#wall)" stroke="#454b49" stroke-width="1"/><polygon points="670.8,387.8 584.8,437.4 584.8,426.0 670.8,376.4" fill="url(#wall)" stroke="#454b49" stroke-width="1"/><polygon points="584.8,437.4 561.5,424.0 561.5,412.6 584.8,426.0" fill="url(#wall)" stroke="#454b49" stroke-width="1"/><polygon points="561.5,412.6 647.5,362.9 670.8,376.4 584.8,426.0" fill="url(#brick)" stroke="#bac0b9" stroke-width="1.2"/><path d="M 568.7,418.8 568.7,411.5 M 583.0,410.5 583.0,403.3" stroke="#c69464" stroke-width="5"/></g><g data-landmark="south-garage"><polygon points="656.5,365.0 729.9,322.6 729.9,311.2 656.5,353.6" fill="url(#wall)" stroke="#454b49" stroke-width="1"/><polygon points="729.9,322.6 756.8,338.1 756.8,326.7 729.9,311.2" fill="url(#wall)" stroke="#454b49" stroke-width="1"/><polygon points="756.8,338.1 683.4,380.5 683.4,369.1 756.8,326.7" fill="url(#wall)" stroke="#454b49" stroke-width="1"/><polygon points="683.4,380.5 656.5,365.0 656.5,353.6 683.4,369.1" fill="url(#wall)" stroke="#454b49" stroke-width="1"/><polygon points="656.5,353.6 729.9,311.2 756.8,326.7 683.4,369.1" fill="url(#brick)" stroke="#bac0b9" stroke-width="1.2"/><path d="M 663.6,359.8 663.6,352.6 M 678.0,351.6 678.0,344.3" stroke="#c69464" stroke-width="5"/></g><g data-landmark="east-admin"><polygon points="557.0,139.0 619.7,102.8 619.7,90.4 557.0,126.6" fill="url(#wall)" stroke="#454b49" stroke-width="1"/><polygon points="619.7,102.8 668.1,130.7 668.1,118.3 619.7,90.4" fill="url(#wall)" stroke="#454b49" stroke-width="1"/><polygon points="668.1,130.7 605.4,166.9 605.4,154.5 668.1,118.3" fill="url(#wall)" stroke="#454b49" stroke-width="1"/><polygon points="605.4,166.9 557.0,139.0 557.0,126.6 605.4,154.5" fill="url(#wall)" stroke="#454b49" stroke-width="1"/><polygon points="557.0,126.6 619.7,90.4 668.1,118.3 605.4,154.5" fill="#69716f" stroke="#bac0b9" stroke-width="1.2"/></g><g data-landmark="east-hostel"><polygon points="672.6,250.2 705.8,231.0 705.8,218.6 672.6,237.8" fill="url(#wall)" stroke="#454b49" stroke-width="1"/><polygon points="705.8,231.0 759.5,262.1 759.5,249.7 705.8,218.6" fill="url(#wall)" stroke="#454b49" stroke-width="1"/><polygon points="759.5,262.1 726.4,281.2 726.4,268.8 759.5,249.7" fill="url(#wall)" stroke="#454b49" stroke-width="1"/><polygon points="726.4,281.2 672.6,250.2 672.6,237.8 726.4,268.8" fill="url(#wall)" stroke="#454b49" stroke-width="1"/><polygon points="672.6,237.8 705.8,218.6 759.5,249.7 726.4,268.8" fill="#706860" stroke="#bac0b9" stroke-width="1.2"/></g><g><line x1="184.4" y1="441.0" x2="184.4" y2="435.9" stroke="#313830" stroke-width="4"/><circle cx="184.4" cy="435.9" r="9" fill="#405346" stroke="#718070"/></g><g><line x1="210.4" y1="438.4" x2="210.4" y2="433.3" stroke="#313830" stroke-width="4"/><circle cx="210.4" cy="433.3" r="9" fill="#405346" stroke="#718070"/></g><g><line x1="216.6" y1="424.5" x2="216.6" y2="419.3" stroke="#313830" stroke-width="4"/><circle cx="216.6" cy="419.3" r="9" fill="#405346" stroke="#718070"/></g><g><line x1="247.1" y1="423.4" x2="247.1" y2="418.3" stroke="#313830" stroke-width="4"/><circle cx="247.1" cy="418.3" r="9" fill="#405346" stroke="#718070"/></g><g><line x1="256.0" y1="405.9" x2="256.0" y2="400.7" stroke="#313830" stroke-width="4"/><circle cx="256.0" cy="400.7" r="9" fill="#405346" stroke="#718070"/></g><g><line x1="290.1" y1="404.8" x2="290.1" y2="399.7" stroke="#313830" stroke-width="4"/><circle cx="290.1" cy="399.7" r="9" fill="#405346" stroke="#718070"/></g><g><line x1="626.9" y1="137.9" x2="626.9" y2="132.8" stroke="#313830" stroke-width="4"/><circle cx="626.9" cy="132.8" r="9" fill="#405346" stroke="#718070"/></g><g><line x1="668.1" y1="139.0" x2="668.1" y2="133.8" stroke="#313830" stroke-width="4"/><circle cx="668.1" cy="133.8" r="9" fill="#405346" stroke="#718070"/></g><g><line x1="227.4" y1="465.9" x2="227.4" y2="460.7" stroke="#313830" stroke-width="4"/><circle cx="227.4" cy="460.7" r="9" fill="#405346" stroke="#718070"/></g><g><line x1="241.7" y1="457.6" x2="241.7" y2="452.4" stroke="#313830" stroke-width="4"/><circle cx="241.7" cy="452.4" r="9" fill="#405346" stroke="#718070"/></g><g><line x1="256.0" y1="449.3" x2="256.0" y2="444.1" stroke="#313830" stroke-width="4"/><circle cx="256.0" cy="444.1" r="9" fill="#405346" stroke="#718070"/></g><g><line x1="270.4" y1="441.0" x2="270.4" y2="435.9" stroke="#313830" stroke-width="4"/><circle cx="270.4" cy="435.9" r="9" fill="#405346" stroke="#718070"/></g><g><line x1="284.7" y1="432.8" x2="284.7" y2="427.6" stroke="#313830" stroke-width="4"/><circle cx="284.7" cy="427.6" r="9" fill="#405346" stroke="#718070"/></g><g><line x1="177.2" y1="339.7" x2="177.2" y2="334.5" stroke="#313830" stroke-width="4"/><circle cx="177.2" cy="334.5" r="9" fill="#405346" stroke="#718070"/></g><g><line x1="188.9" y1="332.9" x2="188.9" y2="327.8" stroke="#313830" stroke-width="4"/><circle cx="188.9" cy="327.8" r="9" fill="#405346" stroke="#718070"/></g><g><line x1="654.7" y1="157.1" x2="654.7" y2="151.9" stroke="#313830" stroke-width="4"/><circle cx="654.7" cy="151.9" r="9" fill="#405346" stroke="#718070"/></g><g><line x1="677.1" y1="154.5" x2="677.1" y2="149.3" stroke="#313830" stroke-width="4"/><circle cx="677.1" cy="149.3" r="9" fill="#405346" stroke="#718070"/></g><g><line x1="766.7" y1="278.6" x2="766.7" y2="273.4" stroke="#313830" stroke-width="4"/><circle cx="766.7" cy="273.4" r="9" fill="#405346" stroke="#718070"/></g><g><line x1="784.6" y1="273.4" x2="784.6" y2="268.3" stroke="#313830" stroke-width="4"/><circle cx="784.6" cy="268.3" r="9" fill="#405346" stroke="#718070"/></g><g><line x1="764.9" y1="319.0" x2="764.9" y2="313.8" stroke="#313830" stroke-width="4"/><circle cx="764.9" cy="313.8" r="9" fill="#405346" stroke="#718070"/></g><g><line x1="778.3" y1="311.2" x2="778.3" y2="306.0" stroke="#313830" stroke-width="4"/><circle cx="778.3" cy="306.0" r="9" fill="#405346" stroke="#718070"/></g><g><line x1="791.8" y1="303.4" x2="791.8" y2="298.3" stroke="#313830" stroke-width="4"/><circle cx="791.8" cy="298.3" r="9" fill="#405346" stroke="#718070"/></g><rect x="228.2" y="459.3" width="18" height="10" rx="4" fill="#59666b" stroke="#c1c7c4"/><rect x="256.9" y="451.0" width="18" height="10" rx="4" fill="#59666b" stroke="#c1c7c4"/><rect x="272.1" y="434.0" width="18" height="10" rx="4" fill="#59666b" stroke="#c1c7c4"/><rect x="250.8" y="324.2" width="14" height="4" rx="2.0" fill="#59666b" stroke="#c1c7c4"/><rect x="449.7" y="314.9" width="14" height="4" rx="2.0" fill="#59666b" stroke="#c1c7c4"/><rect x="813.2" y="243.6" width="18" height="10" rx="4" fill="#d2a437" stroke="#c1c7c4"/><rect x="584.3" y="279.8" width="44" height="9" rx="4" fill="#75534b" stroke="#c1c7c4"/><rect x="386.3" y="294.8" width="44" height="9" rx="4" fill="#4f7080" stroke="#c1c7c4"/><rect x="243.5" y="477.4" width="18" height="10" rx="4" fill="#59666b" stroke="#c1c7c4"/><rect x="259.6" y="468.1" width="18" height="10" rx="4" fill="#59666b" stroke="#c1c7c4"/><rect x="275.7" y="458.8" width="18" height="10" rx="4" fill="#59666b" stroke="#c1c7c4"/><rect x="291.8" y="449.5" width="18" height="10" rx="4" fill="#59666b" stroke="#c1c7c4"/><rect x="270.3" y="490.9" width="18" height="10" rx="4" fill="#59666b" stroke="#c1c7c4"/><rect x="288.2" y="480.5" width="18" height="10" rx="4" fill="#59666b" stroke="#c1c7c4"/><rect x="306.2" y="470.2" width="18" height="10" rx="4" fill="#59666b" stroke="#c1c7c4"/><rect x="324.1" y="459.8" width="18" height="10" rx="4" fill="#59666b" stroke="#c1c7c4"/><rect x="444.1" y="454.7" width="18" height="10" rx="4" fill="#59666b" stroke="#c1c7c4"/><rect x="462.0" y="444.3" width="18" height="10" rx="4" fill="#59666b" stroke="#c1c7c4"/><rect x="480.0" y="434.0" width="18" height="10" rx="4" fill="#59666b" stroke="#c1c7c4"/><rect x="659.1" y="330.5" width="18" height="10" rx="4" fill="#59666b" stroke="#c1c7c4"/><rect x="677.0" y="320.2" width="18" height="10" rx="4" fill="#59666b" stroke="#c1c7c4"/><rect x="705.7" y="295.3" width="18" height="10" rx="4" fill="#59666b" stroke="#c1c7c4"/><rect x="732.6" y="279.8" width="18" height="10" rx="4" fill="#59666b" stroke="#c1c7c4"/><rect x="703.9" y="190.9" width="18" height="10" rx="4" fill="#59666b" stroke="#c1c7c4"/><rect x="721.8" y="180.5" width="18" height="10" rx="4" fill="#59666b" stroke="#c1c7c4"/><rect x="254.4" y="380.1" width="14" height="4" rx="2.0" fill="#59666b" stroke="#c1c7c4"/><rect x="287.6" y="360.9" width="14" height="4" rx="2.0" fill="#59666b" stroke="#c1c7c4"/><rect x="332.4" y="335.1" width="14" height="4" rx="2.0" fill="#59666b" stroke="#c1c7c4"/><rect x="386.1" y="304.0" width="14" height="4" rx="2.0" fill="#59666b" stroke="#c1c7c4"/><rect x="444.3" y="270.4" width="14" height="4" rx="2.0" fill="#59666b" stroke="#c1c7c4"/><rect x="502.6" y="236.8" width="14" height="4" rx="2.0" fill="#59666b" stroke="#c1c7c4"/><rect x="556.3" y="205.8" width="14" height="4" rx="2.0" fill="#59666b" stroke="#c1c7c4"/><rect x="605.6" y="177.3" width="14" height="4" rx="2.0" fill="#59666b" stroke="#c1c7c4"/><g opacity=".18" fill="#d9b978"><ellipse cx="350.3" cy="514.1" rx="18" ry="3"/><ellipse cx="413.0" cy="477.9" rx="18" ry="3"/><ellipse cx="475.7" cy="441.7" rx="18" ry="3"/><ellipse cx="538.4" cy="405.4" rx="18" ry="3"/><ellipse cx="601.1" cy="369.2" rx="18" ry="3"/><ellipse cx="663.8" cy="333.0" rx="18" ry="3"/><ellipse cx="726.5" cy="296.8" rx="18" ry="3"/><ellipse cx="789.2" cy="260.6" rx="18" ry="3"/></g><text x="24" y="620" text-anchor="start">VATRA CENTRAL · AFTER RAIN · 270° ISOMETRIC</text></svg>