<svg xmlns="http://www.w3.org/2000/svg" width="960" height="640" viewBox="0 0 960 640"><polygon points="107.3,371.7 189.7,324.1 252.5,360.3 170.0,407.9" fill="#0a1012" opacity=".56"/><polygon points="157.5,346.9 171.8,338.6 200.5,355.2 186.2,363.4" fill="#0a1012" opacity=".56"/><polygon points="328.6,292.6 348.3,281.2 446.9,338.1 427.1,349.5" fill="#0a1012" opacity=".56"/><polygon points="671.7,295.2 765.8,240.9 819.5,271.9 725.5,326.2" fill="#0a1012" opacity=".56"/><polygon points="717.4,207.8 744.3,192.2 787.3,217.1 760.4,232.6" fill="#0a1012" opacity=".56"/><polygon points="175.4,302.4 248.9,260.0 274.0,274.5 200.5,316.9" fill="#0a1012" opacity=".56"/><polygon points="263.2,254.8 345.6,207.2 368.0,220.2 285.6,267.8" fill="#0a1012" opacity=".56"/><polygon points="357.3,197.4 427.1,157.1 454.0,172.6 384.1,212.9" fill="#0a1012" opacity=".56"/><polygon points="441.5,150.9 540.0,94.0 564.2,107.9 465.7,164.8" fill="#0a1012" opacity=".56"/><polygon points="299.9,508.8 342.9,484.0 369.8,499.5 326.8,524.3" fill="#0a1012" opacity=".56"/><polygon points="358.2,517.6 440.6,470.0 472.8,488.6 390.4,536.2" fill="#0a1012" opacity=".56"/><polygon points="467.5,465.9 544.5,421.4 567.8,434.8 490.8,479.3" fill="#0a1012" opacity=".56"/><polygon points="561.5,412.6 647.5,362.9 670.8,376.4 584.8,426.0" fill="#0a1012" opacity=".56"/><polygon points="656.5,353.6 729.9,311.2 756.8,326.7 683.4,369.1" fill="#0a1012" opacity=".56"/><polygon points="557.0,126.6 619.7,90.4 668.1,118.3 605.4,154.5" fill="#0a1012" opacity=".56"/><polygon points="672.6,237.8 705.8,218.6 759.5,249.7 726.4,268.8" fill="#0a1012" opacity=".56"/></svg>