<svg xmlns="http://www.w3.org/2000/svg" width="960" height="640" viewBox="0 0 960 640"><polygon data-occluder="station-terminal" points="852.7,239.3 770.3,286.9 707.5,250.7 790.0,203.1" fill="#080d0a" opacity=".58"/><polygon data-occluder="clock-tower" points="802.5,235.2 788.2,243.5 759.5,226.9 773.8,218.6" fill="#080d0a" opacity=".58"/><polygon data-occluder="glass-footbridge" points="631.4,332.9 611.7,344.3 513.1,287.4 532.9,276.0" fill="#080d0a" opacity=".58"/><polygon data-occluder="cargo-warehouse" points="288.3,323.1 194.2,377.4 140.5,346.4 234.5,292.1" fill="#080d0a" opacity=".58"/><polygon data-occluder="signal-annex" points="242.6,419.8 215.7,435.3 172.7,410.5 199.6,395.0" fill="#080d0a" opacity=".58"/><polygon data-occluder="north-hotel" points="784.6,312.8 711.1,355.2 686.0,340.7 759.5,298.3" fill="#080d0a" opacity=".58"/><polygon data-occluder="north-shops" points="696.8,360.3 614.4,407.9 592.0,395.0 674.4,347.4" fill="#080d0a" opacity=".58"/><polygon data-occluder="north-offices" points="602.7,417.8 532.9,458.1 506.0,442.6 575.9,402.2" fill="#080d0a" opacity=".58"/><polygon data-occluder="north-apartments" points="518.5,464.3 420.0,521.2 395.8,507.2 494.3,450.3" fill="#080d0a" opacity=".58"/><polygon data-occluder="west-cafe" points="660.1,106.4 617.1,131.2 590.2,115.7 633.2,90.9" fill="#080d0a" opacity=".58"/><polygon data-occluder="south-workshops" points="601.8,100.7 519.4,148.3 487.2,129.7 569.6,82.1" fill="#080d0a" opacity=".58"/><polygon data-occluder="south-houses" points="492.5,149.3 415.5,193.8 392.2,180.3 469.2,135.9" fill="#080d0a" opacity=".58"/><polygon data-occluder="south-depot" points="398.5,205.7 312.5,255.3 289.2,241.9 375.2,192.2" fill="#080d0a" opacity=".58"/><polygon data-occluder="south-garage" points="303.5,264.7 230.1,307.1 203.2,291.6 276.6,249.1" fill="#080d0a" opacity=".58"/><polygon data-occluder="east-admin" points="403.0,488.6 340.3,524.8 291.9,496.9 354.6,460.7" fill="#080d0a" opacity=".58"/><polygon data-occluder="east-hostel" points="287.4,377.4 254.3,396.5 200.5,365.5 233.6,346.4" fill="#080d0a" opacity=".58"/><circle cx="775.6" cy="193.8" r="7.0" fill="#101812" opacity=".42"/><circle cx="749.6" cy="196.4" r="7.0" fill="#101812" opacity=".42"/><circle cx="743.4" cy="210.3" r="7.0" fill="#101812" opacity=".42"/><circle cx="712.9" cy="211.4" r="7.0" fill="#101812" opacity=".42"/><circle cx="704.0" cy="229.0" r="7.0" fill="#101812" opacity=".42"/><circle cx="669.9" cy="230.0" r="7.0" fill="#101812" opacity=".42"/><circle cx="333.1" cy="496.9" r="7.0" fill="#101812" opacity=".42"/><circle cx="291.9" cy="495.9" r="7.0" fill="#101812" opacity=".42"/><circle cx="732.6" cy="169.0" r="7.0" fill="#101812" opacity=".42"/><circle cx="718.3" cy="177.2" r="7.0" fill="#101812" opacity=".42"/><circle cx="704.0" cy="185.5" r="7.0" fill="#101812" opacity=".42"/><circle cx="689.6" cy="193.8" r="7.0" fill="#101812" opacity=".42"/><circle cx="675.3" cy="202.1" r="7.0" fill="#101812" opacity=".42"/><circle cx="782.8" cy="295.2" r="7.0" fill="#101812" opacity=".42"/><circle cx="771.1" cy="301.9" r="7.0" fill="#101812" opacity=".42"/><circle cx="305.3" cy="477.8" r="7.0" fill="#101812" opacity=".42"/><circle cx="282.9" cy="480.3" r="7.0" fill="#101812" opacity=".42"/><circle cx="193.3" cy="356.2" r="7.0" fill="#101812" opacity=".42"/><circle cx="175.4" cy="361.4" r="7.0" fill="#101812" opacity=".42"/><circle cx="195.1" cy="315.9" r="7.0" fill="#101812" opacity=".42"/><circle cx="181.7" cy="323.6" r="7.0" fill="#101812" opacity=".42"/><circle cx="168.3" cy="331.4" r="7.0" fill="#101812" opacity=".42"/></svg>