<svg xmlns="http://www.w3.org/2000/svg" width="960" height="640" viewBox="0 0 960 640"><polygon data-occluder="station-terminal" points="365.3,520.7 447.7,473.1 385.0,436.9 302.6,484.5" fill="#080d0a" opacity=".58"/><polygon data-occluder="clock-tower" points="383.2,477.2 397.6,469.0 368.9,452.4 354.6,460.7" fill="#080d0a" opacity=".58"/><polygon data-occluder="glass-footbridge" points="514.9,400.2 534.6,388.8 436.1,331.9 416.4,343.3" fill="#080d0a" opacity=".58"/><polygon data-occluder="cargo-warehouse" points="503.3,199.0 597.4,144.7 543.6,113.6 449.5,167.9" fill="#080d0a" opacity=".58"/><polygon data-occluder="signal-annex" points="663.6,176.7 690.5,161.2 647.5,136.4 620.6,151.9" fill="#080d0a" opacity=".58"/><polygon data-occluder="north-hotel" points="489.0,483.4 562.4,441.0 537.3,426.5 463.9,469.0" fill="#080d0a" opacity=".58"/><polygon data-occluder="north-shops" points="571.4,432.8 653.8,385.2 631.4,372.2 549.0,419.8" fill="#080d0a" opacity=".58"/><polygon data-occluder="north-offices" points="670.8,378.4 740.7,338.1 713.8,322.6 643.9,362.9" fill="#080d0a" opacity=".58"/><polygon data-occluder="north-apartments" points="751.4,329.8 850.0,272.9 825.8,259.0 727.3,315.9" fill="#080d0a" opacity=".58"/><polygon data-occluder="west-cafe" points="131.5,411.5 174.5,386.7 147.6,371.2 104.6,396.0" fill="#080d0a" opacity=".58"/><polygon data-occluder="south-workshops" points="118.1,380.0 200.5,332.4 168.3,313.8 85.8,361.4" fill="#080d0a" opacity=".58"/><polygon data-occluder="south-houses" points="205.9,314.8 282.9,270.3 259.6,256.9 182.6,301.4" fill="#080d0a" opacity=".58"/><polygon data-occluder="south-depot" points="299.9,262.6 385.9,212.9 362.6,199.5 276.6,249.1" fill="#080d0a" opacity=".58"/><polygon data-occluder="south-garage" points="402.1,207.8 475.5,165.3 448.6,149.8 375.2,192.2" fill="#080d0a" opacity=".58"/><polygon data-occluder="east-admin" points="793.5,263.1 856.3,226.9 807.9,199.0 745.2,235.2" fill="#080d0a" opacity=".58"/><polygon data-occluder="east-hostel" points="600.9,196.4 634.1,177.2 580.3,146.2 547.2,165.3" fill="#080d0a" opacity=".58"/><circle cx="270.4" cy="485.5" r="7.0" fill="#101812" opacity=".42"/><circle cx="274.9" cy="470.5" r="7.0" fill="#101812" opacity=".42"/><circle cx="299.0" cy="466.9" r="7.0" fill="#101812" opacity=".42"/><circle cx="300.8" cy="449.3" r="7.0" fill="#101812" opacity=".42"/><circle cx="331.3" cy="444.1" r="7.0" fill="#101812" opacity=".42"/><circle cx="333.1" cy="424.5" r="7.0" fill="#101812" opacity=".42"/><circle cx="795.3" cy="230.0" r="7.0" fill="#101812" opacity=".42"/><circle cx="793.5" cy="206.2" r="7.0" fill="#101812" opacity=".42"/><circle cx="227.4" cy="460.7" r="7.0" fill="#101812" opacity=".42"/><circle cx="241.7" cy="452.4" r="7.0" fill="#101812" opacity=".42"/><circle cx="256.0" cy="444.1" r="7.0" fill="#101812" opacity=".42"/><circle cx="270.4" cy="435.9" r="7.0" fill="#101812" opacity=".42"/><circle cx="284.7" cy="427.6" r="7.0" fill="#101812" opacity=".42"/><circle cx="446.0" cy="489.6" r="7.0" fill="#101812" opacity=".42"/><circle cx="457.6" cy="482.9" r="7.0" fill="#101812" opacity=".42"/><circle cx="762.2" cy="214.0" r="7.0" fill="#101812" opacity=".42"/><circle cx="766.7" cy="201.0" r="7.0" fill="#101812" opacity=".42"/><circle cx="551.7" cy="149.3" r="7.0" fill="#101812" opacity=".42"/><circle cx="560.6" cy="139.0" r="7.0" fill="#101812" opacity=".42"/><circle cx="481.8" cy="150.4" r="7.0" fill="#101812" opacity=".42"/><circle cx="495.2" cy="142.6" r="7.0" fill="#101812" opacity=".42"/><circle cx="508.7" cy="134.8" r="7.0" fill="#101812" opacity=".42"/></svg>