<svg xmlns="http://www.w3.org/2000/svg" width="960" height="640" viewBox="0 0 960 640"><defs>
    <linearGradient id="sky" x2="0" y2="1"><stop stop-color="#6f8085"/><stop offset="1" stop-color="#263437"/></linearGradient>
    <pattern id="asphalt" width="18" height="18" patternUnits="userSpaceOnUse"><rect width="18" height="18" fill="#46504e"/><circle cx="3" cy="5" r=".7" fill="#707875" opacity=".35"/><circle cx="13" cy="12" r=".55" fill="#252d2c" opacity=".5"/></pattern>
    <pattern id="pavers" width="12" height="8" patternUnits="userSpaceOnUse"><rect width="12" height="8" fill="#85867d"/><path d="M0 0h12M0 8h12M6 0v8" stroke="#666a64" stroke-width=".55"/></pattern>
    <pattern id="ballast" width="11" height="9" patternUnits="userSpaceOnUse"><rect width="11" height="9" fill="#484b46"/><circle cx="2" cy="3" r="1.2" fill="#77766c"/><circle cx="8" cy="6" r="1.4" fill="#62635d"/></pattern>
    <pattern id="roofTile" width="10" height="7" patternUnits="userSpaceOnUse"><rect width="10" height="7" fill="#76685c"/><path d="M0 1h10M2 1v6M7 1v6" stroke="#554b45" stroke-width=".55"/></pattern>
    <pattern id="stationRoof" width="12" height="8" patternUnits="userSpaceOnUse"><rect width="12" height="8" fill="#4d5b56"/><path d="M0 2h12M3 2v6M9 2v6" stroke="#77817a" stroke-width=".65"/></pattern>
    <linearGradient id="metalRoof"><stop stop-color="#7a8987"/><stop offset="1" stop-color="#3f5151"/></linearGradient>
    <pattern id="construction" width="9" height="9" patternUnits="userSpaceOnUse" patternTransform="rotate(45)"><rect width="9" height="9" fill="#665f51"/><rect width="3" height="9" fill="#9b804b" opacity=".5"/></pattern>
    <linearGradient id="platform" x2="0" y2="1"><stop stop-color="#a5a69c"/><stop offset="1" stop-color="#747a75"/></linearGradient>
    <radialGradient id="vignette"><stop offset="58%" stop-color="#000" stop-opacity="0"/><stop offset="100%" stop-color="#08100e" stop-opacity=".42"/></radialGradient>
    <filter id="shadow"><feGaussianBlur stdDeviation="2.2"/></filter>
    <clipPath id="stage"><rect width="960" height="640"/></clipPath>
    <clipPath id="map-footprint"><polygon points="557.65,65.27 71.70,349.04 59.48,454.48 310.60,600.59 458.81,581.77 838.56,360.02 900.52,230.99 670.95,97.42"/></clipPath>
  </defs><g clip-path="url(#map-footprint)"><polygon data-occluder="way/276162629" points="410.76,143.65 418.65,139.04 419.71,141.64" fill="#17201c" opacity=".52"/><polygon data-occluder="way/276472751" points="483.99,100.89 489.86,101.39 489.23,97.83" fill="#17201c" opacity=".52"/><polygon data-occluder="way/276162706" points="398.33,150.91 401.58,153.03 391.58,157.27 389.56,156.03" fill="#17201c" opacity=".52"/><polygon data-occluder="way/276472753" points="239.02,245.77 236.82,245.22 225.73,251.70 224.58,253.06 231.09,255.08" fill="#17201c" opacity=".52"/><polygon data-occluder="way/276472260" points="36.21,365.02 33.52,363.93 9.02,378.24 12.60,380.22 26.75,369.77 28.41,370.73" fill="#17201c" opacity=".52"/><polygon data-occluder="way/276472521" points="541.74,67.43 540.61,67.83 531.30,73.27 533.73,75.64 545.81,71.39" fill="#17201c" opacity=".52"/><polygon data-occluder="way/276472833" points="137.54,309.09 134.77,304.81 127.34,309.15 128.59,311.08" fill="#17201c" opacity=".52"/><polygon data-occluder="way/275799144" points="260.02,231.68 263.62,233.36 257.77,239.45 250.17,237.42" fill="#17201c" opacity=".52"/><polygon data-occluder="way/276473153" points="574.59,54.12 563.27,63.04 556.96,58.28 574.27,48.18 575.34,48.76 571.00,52.03" fill="#17201c" opacity=".52"/><polygon data-occluder="way/276472569" points="505.42,94.11 496.34,93.68 489.52,97.66 504.85,98.45" fill="#17201c" opacity=".52"/><polygon data-occluder="way/276162715" points="454.90,117.88 460.09,125.08 449.23,128.22 446.83,123.80 442.92,124.87 432.63,130.88 436.95,140.00 427.47,141.32 424.77,135.47" fill="#17201c" opacity=".52"/><polygon data-occluder="way/276472825" points="206.19,263.10 219.68,265.55 222.59,260.17 213.92,258.59" fill="#17201c" opacity=".52"/><polygon data-occluder="way/275799148" points="318.72,204.44 313.26,201.57 299.90,209.82 305.35,212.84" fill="#17201c" opacity=".52"/><polygon data-occluder="way/276472444" points="157.48,299.55 155.18,297.04 145.15,300.19 147.43,302.69" fill="#17201c" opacity=".52"/><polygon data-occluder="way/276472475" points="595.03,45.86 586.62,40.96 577.83,46.10 588.51,50.83" fill="#17201c" opacity=".52"/><polygon data-occluder="way/275799147" points="347.85,191.43 338.51,185.84 328.91,191.45 331.96,193.31 321.41,199.18 326.98,202.28 340.22,195.44" fill="#17201c" opacity=".52"/><polygon data-occluder="way/276162747" points="428.15,148.16 424.19,142.84 403.69,147.78 400.98,149.37 405.02,153.42" fill="#17201c" opacity=".52"/><polygon data-occluder="way/276473054" points="211.55,267.49 200.48,266.44 196.62,268.70 194.51,277.32 195.94,277.65 203.49,279.39 206.43,274.14 208.24,271.79" fill="#17201c" opacity=".52"/><polygon data-occluder="way/276472568" points="88.46,331.85 93.79,345.68 86.67,346.63 82.35,335.42" fill="#17201c" opacity=".52"/><polygon data-occluder="way/276472661" points="133.19,318.90 129.29,314.67 122.10,316.94 126.01,321.17" fill="#17201c" opacity=".52"/><polygon data-occluder="way/276472885" points="115.47,342.08 112.60,333.53 105.04,334.71 100.96,324.55 100.96,324.55 94.82,328.14 100.24,344.37" fill="#17201c" opacity=".52"/><polygon data-occluder="way/276473262" points="47.25,369.07 43.90,365.85 14.34,385.57 20.25,388.33 34.40,379.82 37.51,377.87 35.29,376.84" fill="#17201c" opacity=".52"/><polygon data-occluder="way/276472746" points="558.13,76.35 553.32,71.75 534.79,78.37 539.59,82.96 547.93,79.99" fill="#17201c" opacity=".52"/><polygon data-occluder="way/276472955" points="583.76,58.44 578.05,55.99 572.09,60.20 574.69,61.13 566.73,67.37 569.21,70.11" fill="#17201c" opacity=".52"/><polygon data-occluder="way/276162742" points="448.50,133.50 441.37,134.82 442.65,137.21 441.12,137.49 443.70,142.30 452.37,140.70" fill="#17201c" opacity=".52"/><polygon data-occluder="way/276472864" points="159.81,302.73 151.91,305.41 153.90,308.38 136.99,314.63 141.88,316.83 165.35,309.59" fill="#17201c" opacity=".52"/><polygon data-occluder="way/276472961" points="216.19,272.60 208.24,271.79 206.43,274.14 203.49,279.39 202.73,281.85 213.24,281.01" fill="#17201c" opacity=".52"/><polygon data-occluder="way/276472781" points="525.19,91.49 522.09,88.00 539.59,82.96 547.93,79.99 550.74,84.06" fill="#17201c" opacity=".52"/><polygon data-occluder="way/276472417" points="74.60,362.31 70.50,356.63 60.85,358.35 67.11,365.29" fill="#17201c" opacity=".52"/><polygon data-occluder="way/275799143" points="301.75,230.03 298.33,227.88 283.44,236.44 271.38,232.53 262.97,240.55 278.96,245.55 284.43,243.10" fill="#17201c" opacity=".52"/><polygon data-occluder="way/276473273" points="244.00,246.77 241.07,250.64 243.88,251.64 225.39,277.96 218.67,276.83 216.71,281.89 231.22,285.02 248.98,258.16 255.93,249.63" fill="#17201c" opacity=".52"/><polygon data-occluder="way/276472348" points="512.34,116.75 502.70,114.43 503.38,109.78 498.82,109.07 496.36,117.11 466.93,110.85 483.99,100.89 489.86,101.39 487.94,110.26 491.05,110.90 493.51,104.04 523.15,104.04 523.04,107.34 522.70,110.00 514.37,109.56 513.25,114.48" fill="#17201c" opacity=".52"/><polygon data-occluder="way/276473177" points="194.51,277.32 191.54,289.14 217.22,294.21 220.16,289.09 201.31,286.09 202.73,281.85 203.49,279.39 195.94,277.65" fill="#17201c" opacity=".52"/><polygon data-occluder="way/275799146" points="347.85,191.43 340.22,195.44 343.64,197.73 324.05,209.17 332.16,214.94 347.56,205.94 350.99,209.25 366.30,203.00" fill="#17201c" opacity=".52"/><polygon data-occluder="way/276473090" points="93.48,353.55 73.00,355.17 75.69,359.90 77.56,359.71 89.46,358.42 89.14,356.59 95.53,356.39" fill="#17201c" opacity=".52"/><polygon data-occluder="way/276162699" points="469.19,140.64 464.38,133.41 451.63,134.45 455.56,142.98 458.32,141.57 460.90,144.27" fill="#17201c" opacity=".52"/><polygon data-occluder="way/276473116" points="492.35,125.42 490.86,128.35 484.09,127.42 485.38,131.18 478.58,132.89 474.90,125.27 479.47,123.05" fill="#17201c" opacity=".52"/><polygon data-occluder="way/276473013" points="135.92,334.25 128.93,335.43 127.64,332.77 120.40,333.98 123.34,340.03 137.57,337.64" fill="#17201c" opacity=".52"/><polygon data-occluder="way/276472851" points="79.90,364.51 77.56,359.71 89.46,358.42 89.14,356.59 95.53,356.39 97.64,363.11" fill="#17201c" opacity=".52"/><polygon data-occluder="way/276472257" points="561.08,79.19 555.63,82.24 559.84,85.21 554.39,88.26 555.61,89.36 547.83,95.45 527.07,92.46 524.50,97.05 550.02,101.14 557.41,94.85 564.93,88.44 569.28,84.73" fill="#17201c" opacity=".52"/><polygon data-occluder="way/276472259" points="168.98,324.16 148.32,330.17 150.97,334.51 181.86,327.37 167.67,311.46 134.30,321.63 128.53,322.94 130.74,326.70 139.08,325.57 151.31,321.41 154.64,324.90 166.43,321.12" fill="#17201c" opacity=".52"/><polygon data-occluder="way/276472829" points="62.13,395.31 55.50,399.84 44.28,393.58 37.70,397.58 20.25,388.33 34.40,379.82 40.22,383.06" fill="#17201c" opacity=".52"/><polygon data-occluder="way/276473105" points="252.56,288.45 250.06,292.18 205.97,284.37 202.73,281.85 213.24,281.01 216.71,281.89 231.22,285.02" fill="#17201c" opacity=".52"/><polygon data-occluder="way/276473063" points="524.68,115.82 530.12,114.71 529.47,107.59 523.04,107.34 522.70,110.00 514.37,109.56 513.25,114.48" fill="#17201c" opacity=".52"/><polygon data-occluder="way/276472897" points="625.79,63.76 624.75,64.42 610.02,57.24 606.17,59.35 601.02,57.19 606.31,52.42" fill="#17201c" opacity=".52"/><polygon data-occluder="way/276472915" points="614.91,65.56 599.93,59.08 593.31,65.17 598.23,68.04 601.11,65.09 610.58,69.76" fill="#17201c" opacity=".52"/><polygon data-occluder="way/276472538" points="148.32,330.17 138.98,332.14 141.62,336.47 150.97,334.51" fill="#17201c" opacity=".52"/><polygon data-occluder="way/275799142" points="356.55,217.25 349.44,213.27 314.08,231.26 316.61,233.63 308.21,237.50 305.30,234.76 284.43,243.10 278.96,245.55 292.67,249.08 305.15,242.54 330.84,232.56 342.03,226.32" fill="#17201c" opacity=".52"/><polygon data-occluder="way/276472344" points="296.99,260.91 287.69,272.32 281.70,270.67 287.17,263.97 283.76,263.02 279.44,268.32 270.93,265.98 275.43,260.45 271.08,259.25 259.89,272.97 253.01,271.08 257.35,265.76 254.58,265.00 258.69,259.94 256.39,259.31 259.13,255.94 255.81,255.03 252.48,259.11 248.98,258.16 255.93,249.63" fill="#17201c" opacity=".52"/><polygon data-occluder="way/276472785" points="524.68,115.82 523.67,120.93 511.57,118.69 512.34,116.75 513.25,114.48" fill="#17201c" opacity=".52"/><polygon data-occluder="way/276472507" points="119.01,358.07 111.18,359.30 107.93,352.12 115.76,350.89" fill="#17201c" opacity=".52"/><polygon data-occluder="way/276472733" points="570.37,91.59 564.93,88.44 557.41,94.85 562.30,96.74 564.25,97.49" fill="#17201c" opacity=".52"/><polygon data-occluder="way/276473015" points="597.45,84.69 591.80,87.84 578.99,78.84 589.22,68.82 596.05,72.09 588.47,78.06" fill="#17201c" opacity=".52"/><polygon data-occluder="way/276473072" points="102.24,362.44 97.64,363.11 81.86,365.39 90.61,374.53 97.88,372.43 95.83,368.96 104.39,367.24" fill="#17201c" opacity=".52"/><polygon data-occluder="way/276472727" points="555.47,103.14 562.30,96.74 557.41,94.85 550.02,101.14" fill="#17201c" opacity=".52"/><polygon data-occluder="way/276162769" points="456.31,149.41 463.77,161.22 478.30,158.01 471.21,146.24" fill="#17201c" opacity=".52"/><polygon data-occluder="way/276472883" points="57.81,401.13 47.01,407.70 33.48,400.14 37.70,397.58 44.28,393.58 55.50,399.84" fill="#17201c" opacity=".52"/><polygon data-occluder="way/276473176" points="211.01,303.25 211.44,306.79 197.89,306.12 199.07,310.35 211.32,310.89 212.17,318.35 195.58,318.31 192.16,301.39" fill="#17201c" opacity=".52"/><polygon data-occluder="way/276472990" points="581.36,94.10 577.04,91.19 573.80,94.10 571.25,93.15 567.02,97.29 574.57,99.73" fill="#17201c" opacity=".52"/><polygon data-occluder="way/276472770" points="107.08,373.99 104.39,367.24 95.83,368.96 97.88,372.43 99.82,375.33" fill="#17201c" opacity=".52"/><polygon data-occluder="way/276472512" points="86.34,377.80 73.13,379.44 76.72,389.49 89.94,387.84" fill="#17201c" opacity=".52"/><polygon data-occluder="way/276472576" points="513.94,129.76 502.41,127.84 499.65,133.82 502.41,134.29 505.18,134.75 502.11,142.82 501.43,144.61 504.14,144.96 507.87,145.44" fill="#17201c" opacity=".52"/><polygon data-occluder="way/276472912" points="130.24,355.63 124.63,356.40 125.77,360.28 113.58,361.78 115.34,366.56 132.89,365.41" fill="#17201c" opacity=".52"/><polygon data-occluder="way/276472244" points="560.43,111.35 560.09,115.81 552.10,115.44 552.32,114.27 544.66,114.35 541.52,124.45 528.99,122.60 531.67,115.87 536.55,116.63 540.36,105.63 552.79,106.25 552.78,110.00" fill="#17201c" opacity=".52"/><polygon data-occluder="way/276472398" points="514.24,129.88 512.43,134.47 526.87,136.32 528.27,131.91" fill="#17201c" opacity=".52"/><polygon data-occluder="way/275799141" points="359.02,240.80 349.38,233.56 327.76,243.38 323.20,240.73 315.43,243.77 313.66,242.30 295.85,249.59 303.47,251.80 313.64,247.19 318.22,249.25 324.70,246.20 329.40,249.68 320.88,254.36 328.23,257.15 338.67,250.91 335.24,248.63 341.60,245.50 345.92,247.57" fill="#17201c" opacity=".52"/><polygon data-occluder="way/276472488" points="285.23,275.98 273.44,273.76 271.00,278.14 282.78,280.36" fill="#17201c" opacity=".52"/><polygon data-occluder="way/276472248" points="173.18,350.29 166.72,339.19 128.76,347.47 133.29,356.94 138.16,356.36 139.24,358.12 143.69,357.17 145.53,358.75 154.21,355.95 152.81,352.86 163.32,350.63 163.97,352.26" fill="#17201c" opacity=".52"/><polygon data-occluder="way/276473127" points="632.65,74.20 624.25,70.15 615.72,77.37 617.63,78.63 604.05,90.48 600.69,87.83 595.52,90.71 605.47,98.17" fill="#17201c" opacity=".52"/><polygon data-occluder="way/276472355" points="589.22,99.06 584.01,95.64 573.34,104.08 581.32,106.91" fill="#17201c" opacity=".52"/><polygon data-occluder="way/1241880449" points="485.47,169.26 480.78,162.25 473.78,163.86 471.81,160.92 465.58,162.36 468.71,167.04 465.77,167.72 469.28,172.98" fill="#17201c" opacity=".52"/><polygon data-occluder="way/276472409" points="65.99,411.56 61.78,403.15 50.33,406.86 55.41,415.53" fill="#17201c" opacity=".52"/><polygon data-occluder="way/276472329" points="255.12,301.71 247.60,300.09 222.74,294.76 219.27,299.95 222.95,301.08 229.22,302.84 227.16,307.32 214.69,307.29 214.54,323.02 233.40,323.10 233.67,321.34 235.70,308.25 241.69,302.37 248.40,303.36 243.19,311.08 249.68,312.21" fill="#17201c" opacity=".52"/><polygon data-occluder="way/276472667" points="263.50,291.27 256.03,289.08 247.60,300.09 255.12,301.71" fill="#17201c" opacity=".52"/><polygon data-occluder="way/276472740" points="535.33,132.65 528.27,131.91 526.87,136.32 526.10,138.74 533.15,139.48" fill="#17201c" opacity=".52"/><polygon data-occluder="way/276472769" points="132.89,365.41 115.34,366.56 117.92,376.83 129.33,376.31 137.15,375.40" fill="#17201c" opacity=".52"/><polygon data-occluder="way/276472870" points="301.40,261.70 296.84,267.14 301.71,268.59 298.76,275.98 305.45,277.94 315.16,264.38" fill="#17201c" opacity=".52"/><polygon data-occluder="way/276472379" points="507.92,146.03 514.12,146.92 512.24,151.30 506.04,150.41" fill="#17201c" opacity=".52"/><polygon data-occluder="way/276472911" points="514.91,137.18 512.49,142.84 516.83,143.36 515.21,151.62 521.36,152.67 524.83,138.56" fill="#17201c" opacity=".52"/><polygon data-occluder="way/275799140" points="428.54,246.54 416.80,252.66 367.07,223.00 369.80,221.41 350.99,209.25 366.30,203.00 383.62,214.55 380.91,215.66" fill="#17201c" opacity=".52"/><polygon data-occluder="way/276472838" points="563.75,120.14 557.65,118.54 556.63,121.45 551.31,120.42 549.07,125.61 560.83,127.39" fill="#17201c" opacity=".52"/><polygon data-occluder="way/276472867" points="511.92,157.56 508.39,153.99 504.35,155.03 500.00,151.00 491.28,153.27 499.17,160.50" fill="#17201c" opacity=".52"/><polygon data-occluder="way/276162750" points="485.47,169.26 469.28,172.98 472.92,178.08 458.09,181.03 456.70,178.61 447.42,180.45 449.27,183.65 441.42,185.21 438.90,180.87 430.36,182.56 433.56,188.10 430.06,188.80 432.93,193.78 482.13,184.01 480.90,181.87 485.69,180.91 483.82,177.67 489.75,176.49" fill="#17201c" opacity=".52"/><polygon data-occluder="way/276473046" points="161.20,373.68 154.21,355.95 145.53,358.75 143.69,357.17 139.24,358.12 146.89,375.36 154.65,374.45" fill="#17201c" opacity=".52"/><polygon data-occluder="way/276472787" points="182.11,336.75 173.22,337.78 183.69,351.72 193.74,350.50 188.88,345.10" fill="#17201c" opacity=".52"/><polygon data-occluder="way/276473164" points="247.39,317.45 240.90,317.22 243.19,311.08 248.40,303.36 241.69,302.37 235.70,308.25 233.67,321.34 246.94,321.24" fill="#17201c" opacity=".52"/><polygon data-occluder="way/276472831" points="140.35,382.81 138.52,377.99 131.01,378.63 129.33,376.31 119.37,377.59 121.42,384.95" fill="#17201c" opacity=".52"/><polygon data-occluder="way/276472428" points="595.99,104.88 586.56,109.81 592.33,113.57 601.76,108.64" fill="#17201c" opacity=".52"/><polygon data-occluder="way/276472585" points="92.46,393.47 81.23,395.15 89.29,413.86 100.52,412.18" fill="#17201c" opacity=".52"/><polygon data-occluder="way/276472223" points="163.97,352.26 168.26,367.92 165.45,368.94 171.05,379.79 158.47,382.09 154.65,374.45 161.20,373.68 154.21,355.95 152.81,352.86 163.32,350.63" fill="#17201c" opacity=".52"/><polygon data-occluder="way/276472918" points="590.60,123.19 589.58,128.69 565.83,126.93 571.30,114.56 584.18,116.48 580.72,123.41" fill="#17201c" opacity=".52"/><polygon data-occluder="way/276472212" points="635.09,102.10 629.58,99.31 652.06,79.04 645.89,75.45 620.71,98.35 615.55,94.65 608.09,99.57 623.66,111.57" fill="#17201c" opacity=".52"/><polygon data-occluder="way/276473051" points="330.22,267.83 315.16,264.38 305.45,277.94 301.34,283.68 317.31,288.30 321.62,283.07 319.23,282.69" fill="#17201c" opacity=".52"/><polygon data-occluder="way/323690015" points="547.35,141.07 543.78,154.14 534.22,153.28 537.79,140.21" fill="#17201c" opacity=".52"/><polygon data-occluder="way/276472361" points="295.11,293.49 286.34,307.77 272.87,304.99 281.65,290.71" fill="#17201c" opacity=".52"/><polygon data-occluder="way/276472797" points="202.99,340.75 188.88,345.10 193.74,350.50 198.99,356.31 213.11,351.96" fill="#17201c" opacity=".52"/><polygon data-occluder="way/276473113" points="603.18,109.77 593.73,114.52 597.28,115.93 600.17,114.37 602.16,118.12 610.05,116.62 606.51,111.19" fill="#17201c" opacity=".52"/><polygon data-occluder="way/276472852" points="518.67,167.71 514.45,178.81 505.28,173.09 498.35,165.30 510.79,163.12 513.84,167.71" fill="#17201c" opacity=".52"/><polygon data-occluder="way/276472677" points="567.91,137.11 563.30,136.58 562.02,140.28 566.64,140.81" fill="#17201c" opacity=".52"/><polygon data-occluder="way/276472401" points="262.55,315.41 254.61,314.65 252.11,323.28 260.05,324.04" fill="#17201c" opacity=".52"/><polygon data-occluder="way/276472891" points="338.33,274.83 331.99,285.98 321.62,283.07 319.23,282.69 330.22,267.83 340.72,270.66" fill="#17201c" opacity=".52"/><polygon data-occluder="way/276472386" points="557.51,144.88 554.22,156.92 543.83,155.99 547.14,143.94" fill="#17201c" opacity=".52"/><polygon data-occluder="way/276472584" points="191.19,357.65 180.15,359.26 184.97,370.70 196.01,369.08" fill="#17201c" opacity=".52"/><polygon data-occluder="way/275799139" points="382.48,261.75 377.03,258.58 372.69,261.55 366.73,259.71 369.78,257.18 366.61,255.19 368.40,253.40 362.82,251.20 348.43,261.52 372.68,268.36" fill="#17201c" opacity=".52"/><polygon data-occluder="way/276473092" points="608.04,121.41 601.60,121.55 599.92,124.34 593.59,124.16 592.36,129.15 603.90,129.77 606.91,128.15" fill="#17201c" opacity=".52"/><polygon data-occluder="way/276472691" points="312.44,295.71 317.31,288.30 322.85,289.52 317.99,296.93" fill="#17201c" opacity=".52"/><polygon data-occluder="way/276472200" points="354.37,274.65 340.72,270.66 338.33,274.83 346.34,277.21 338.84,287.90 331.99,285.98 321.62,283.07 317.31,288.30 322.85,289.52 342.66,294.50" fill="#17201c" opacity=".52"/><polygon data-occluder="way/276472763" points="124.70,388.74 125.84,393.25 171.21,388.60 179.42,387.92 179.21,383.05" fill="#17201c" opacity=".52"/><polygon data-occluder="way/276472643" points="286.15,312.10 277.87,310.61 271.32,322.78 279.60,324.27" fill="#17201c" opacity=".52"/><polygon data-occluder="way/276472367" points="125.84,393.25 127.51,397.71 171.97,393.34 171.21,388.60" fill="#17201c" opacity=".52"/><polygon data-occluder="way/323690016" points="582.20,137.76 575.16,137.41 573.50,148.29 580.52,148.63" fill="#17201c" opacity=".52"/><polygon data-occluder="way/1204937096" points="215.79,353.36 205.41,355.87 209.30,361.27 198.68,363.78 201.84,368.04 204.87,367.48 223.21,364.08" fill="#17201c" opacity=".52"/><polygon data-occluder="way/276472668" points="129.71,406.57 129.07,402.42 145.16,401.52 145.80,405.68" fill="#17201c" opacity=".52"/><polygon data-occluder="way/276472646" points="641.40,117.02 634.87,120.23 626.79,114.60 633.32,111.40" fill="#17201c" opacity=".52"/><polygon data-occluder="way/276472844" points="578.08,150.34 570.61,149.74 569.55,154.10 562.18,153.51 560.99,158.37 575.82,159.56" fill="#17201c" opacity=".52"/><polygon data-occluder="way/276472446" points="666.64,103.78 652.28,98.32 645.96,103.94 660.33,109.40" fill="#17201c" opacity=".52"/><polygon data-occluder="way/259723462" points="509.36,187.20 512.79,192.82 509.43,196.25 502.18,197.78 482.03,202.00 450.17,208.69 445.28,200.66" fill="#17201c" opacity=".52"/><polygon data-occluder="way/276472190" points="583.52,137.65 582.50,141.11 585.99,141.45 582.52,153.19 591.43,154.06 592.21,151.40 597.72,151.93 601.42,139.39" fill="#17201c" opacity=".52"/><polygon data-occluder="way/276472458" points="103.50,418.24 90.28,420.20 100.56,444.28 113.77,442.33" fill="#17201c" opacity=".52"/><polygon data-occluder="way/276472705" points="681.20,101.05 666.15,95.38 663.12,98.00 678.33,103.65" fill="#17201c" opacity=".52"/><polygon data-occluder="way/276473059" points="279.23,333.85 253.40,332.43 251.95,340.97 251.58,343.08 267.28,343.95 267.74,341.22 277.87,341.79" fill="#17201c" opacity=".52"/><polygon data-occluder="way/276472531" points="656.59,118.53 656.13,112.80 647.00,113.37 638.71,120.04" fill="#17201c" opacity=".52"/><polygon data-occluder="way/276982254" points="502.18,207.12 504.70,211.37 483.85,214.93 482.03,211.35" fill="#17201c" opacity=".52"/><polygon data-occluder="way/276472752" points="320.32,301.95 315.93,301.15 299.60,325.69 305.99,326.37 309.81,321.40" fill="#17201c" opacity=".52"/><polygon data-occluder="way/276473050" points="373.68,302.64 348.43,297.64 361.21,276.01 354.37,274.65 342.66,294.50 338.73,301.15 370.80,307.50" fill="#17201c" opacity=".52"/><polygon data-occluder="way/276472549" points="617.43,140.11 607.44,139.56 605.77,149.37 615.76,149.92" fill="#17201c" opacity=".52"/><polygon data-occluder="way/276473270" points="336.80,301.21 322.16,298.56 320.32,301.95 309.81,321.40 344.21,327.63 350.88,315.28 323.27,310.29 325.57,306.04 333.42,307.46" fill="#17201c" opacity=".52"/><polygon data-occluder="way/1204937097" points="226.01,363.73 223.21,364.08 204.87,367.48 212.52,390.21 232.66,388.39" fill="#17201c" opacity=".52"/><polygon data-occluder="way/276472574" points="141.29,426.06 137.41,421.67 126.39,425.01 130.28,429.39" fill="#17201c" opacity=".52"/><polygon data-occluder="way/276472808" points="162.24,406.79 148.61,407.65 150.01,415.64 154.12,415.38 154.41,417.05 163.93,416.46" fill="#17201c" opacity=".52"/><polygon data-occluder="way/275799138" points="394.15,264.98 388.04,272.26 402.79,276.90 412.72,269.58" fill="#17201c" opacity=".52"/><polygon data-occluder="way/276472978" points="265.74,354.97 264.87,357.75 251.21,357.65 252.22,345.08 265.33,346.13 262.70,354.72" fill="#17201c" opacity=".52"/><polygon data-occluder="way/262209817" points="521.87,250.74 450.17,208.69 445.28,200.66 430.49,209.23 511.50,256.74" fill="#17201c" opacity=".52"/><polygon data-occluder="way/259723461" points="546.03,196.68 516.91,193.66 513.74,202.91 541.38,206.87" fill="#17201c" opacity=".52"/><polygon data-occluder="way/276472492" points="387.00,283.01 380.34,281.40 369.00,297.12 375.66,298.73" fill="#17201c" opacity=".52"/><polygon data-occluder="way/259723460" points="606.33,178.57 527.79,165.57 523.34,174.55 601.89,187.56" fill="#17201c" opacity=".52"/><polygon data-occluder="way/276473258" points="320.92,336.93 279.23,333.85 277.87,341.79 291.47,343.05 290.23,347.17 303.72,347.85 305.26,344.64 307.50,344.79 317.82,345.50" fill="#17201c" opacity=".52"/><polygon data-occluder="way/276473136" points="695.46,104.29 690.41,108.89 697.11,111.38 702.01,113.20 705.88,114.63 708.76,112.03" fill="#17201c" opacity=".52"/><polygon data-occluder="way/1204937098" points="232.66,388.39 234.23,393.43 225.32,395.37 224.59,392.95 204.69,395.48 203.12,391.29 212.52,390.21" fill="#17201c" opacity=".52"/><polygon data-occluder="way/276472863" points="390.21,283.38 387.17,286.92 391.39,288.24 370.29,317.72 375.60,318.91 398.99,285.19" fill="#17201c" opacity=".52"/><polygon data-occluder="way/276472317" points="690.41,108.89 697.11,111.38 692.19,115.08 695.95,116.60 698.35,114.27 700.41,114.93 702.01,113.20 705.88,114.63 696.16,122.99 691.26,121.07 687.71,124.20 682.36,122.29 681.43,123.35 676.53,121.17" fill="#17201c" opacity=".52"/><polygon data-occluder="way/276472454" points="170.42,424.33 158.96,425.49 159.90,428.73 171.36,427.57" fill="#17201c" opacity=".52"/><polygon data-occluder="way/276472185" points="159.99,439.43 147.10,442.31 143.76,437.40 139.69,437.90 135.26,432.46 158.26,429.20 160.86,430.80 166.61,430.48 167.29,433.29 156.79,434.25" fill="#17201c" opacity=".52"/><polygon data-occluder="way/276472390" points="114.76,448.90 103.64,450.45 110.91,468.44 122.04,466.88" fill="#17201c" opacity=".52"/><polygon data-occluder="way/276472843" points="232.76,397.45 215.85,399.50 214.66,397.42 207.82,398.26 208.67,404.32 234.15,401.93" fill="#17201c" opacity=".52"/><polygon data-occluder="way/276472626" points="665.66,144.42 664.69,148.71 645.90,147.31 646.88,143.02" fill="#17201c" opacity=".52"/><polygon data-occluder="way/276472928" points="400.40,286.01 397.24,290.63 400.59,291.82 378.95,318.96 386.54,321.73 410.90,288.45" fill="#17201c" opacity=".52"/><polygon data-occluder="way/276472842" points="317.82,345.50 311.03,364.46 291.88,362.62 293.42,357.25 302.16,357.86 307.50,344.79" fill="#17201c" opacity=".52"/><polygon data-occluder="way/275798311" points="575.19,201.13 571.57,209.07 564.43,207.98 554.21,230.39 539.40,228.13 548.62,207.97 541.38,206.87 546.03,196.68" fill="#17201c" opacity=".52"/><polygon data-occluder="way/276472655" points="715.13,123.60 703.90,120.10 697.49,127.06 708.72,130.56" fill="#17201c" opacity=".52"/><polygon data-occluder="way/276472987" points="340.98,340.19 326.27,338.79 321.96,348.80 329.92,350.22 331.15,345.75 337.90,346.45" fill="#17201c" opacity=".52"/><polygon data-occluder="way/276472992" points="235.01,403.44 229.60,403.71 228.94,408.89 204.75,411.15 204.53,414.56 235.43,411.53" fill="#17201c" opacity=".52"/><polygon data-occluder="way/276472332" points="273.16,361.97 259.42,363.13 263.24,378.91 258.31,379.33 259.58,384.59 263.86,384.23 264.89,388.53 279.47,387.29 278.66,383.88 282.47,383.55 283.11,386.15 315.44,383.40 311.72,368.07 302.94,368.82 304.53,375.34 276.96,377.69" fill="#17201c" opacity=".52"/><polygon data-occluder="way/276472195" points="234.56,413.03 222.30,414.27 223.10,417.00 217.61,417.56 216.75,414.59 202.77,416.01 205.33,424.89 223.52,423.05 224.90,427.85 238.45,426.48" fill="#17201c" opacity=".52"/><polygon data-occluder="way/276473209" points="161.53,448.11 150.56,450.49 156.67,458.17 152.22,458.62 153.98,460.72 165.30,459.50 164.57,456.77 169.63,456.60" fill="#17201c" opacity=".52"/><polygon data-occluder="way/276472371" points="685.36,152.88 672.82,148.51 660.11,160.84 672.65,165.20" fill="#17201c" opacity=".52"/><polygon data-occluder="way/275799135" points="483.21,268.05 476.39,272.98 471.16,279.00 466.40,277.26 464.75,278.97 428.29,271.20 436.95,264.37 461.20,270.61 467.56,265.12 448.54,253.60 454.53,247.59 480.67,263.02 477.36,265.09" fill="#17201c" opacity=".52"/><polygon data-occluder="way/276472680" points="131.25,488.84 125.91,476.77 114.25,478.55 114.49,479.09" fill="#17201c" opacity=".52"/><polygon data-occluder="way/276472699" points="197.99,436.26 199.88,441.94 186.95,443.44 185.05,437.76" fill="#17201c" opacity=".52"/><polygon data-occluder="way/1049895024" points="669.67,168.26 657.02,164.07 653.50,167.67 647.46,165.67 639.62,173.66 645.48,175.61 639.33,181.88 652.18,186.13" fill="#17201c" opacity=".52"/><polygon data-occluder="way/276472599" points="179.24,449.79 171.54,450.38 172.91,456.67 180.62,456.07" fill="#17201c" opacity=".52"/><polygon data-occluder="way/259723465" points="419.15,322.98 415.27,332.14 357.98,324.02 361.87,314.86" fill="#17201c" opacity=".52"/><polygon data-occluder="way/259723463" points="460.79,294.47 457.42,293.75 412.90,284.58 407.15,293.66 454.78,303.77 459.95,295.80" fill="#17201c" opacity=".52"/><polygon data-occluder="way/276473123" points="194.52,460.86 193.69,455.82 180.62,456.07 172.91,456.67 169.63,456.60 164.57,456.77 165.30,459.50 166.01,462.17" fill="#17201c" opacity=".52"/><polygon data-occluder="way/275798312" points="615.67,213.40 601.20,209.41 596.39,204.20 590.19,203.43 575.19,201.13 571.57,209.07 581.91,211.00 585.68,211.65 590.50,214.85 564.23,241.03 531.84,235.47 523.88,247.74 538.00,251.53 543.54,244.69 559.38,247.87 555.92,253.10 565.39,254.36 569.37,254.89 592.27,234.27 606.68,220.51" fill="#17201c" opacity=".52"/><polygon data-occluder="way/276472660" points="237.91,429.88 207.12,432.80 208.59,438.23 239.38,435.31" fill="#17201c" opacity=".52"/><polygon data-occluder="way/1165345143" points="392.18,346.55 387.60,345.65 352.64,339.21 345.79,349.44 373.75,355.88 379.00,347.78 385.11,349.17 389.67,350.27" fill="#17201c" opacity=".52"/><polygon data-occluder="way/275799134" points="520.45,269.33 511.50,262.97 521.87,256.97 534.57,260.93" fill="#17201c" opacity=".52"/><polygon data-occluder="way/276472211" points="267.74,393.25 255.95,391.94 256.68,401.68 310.45,411.48 313.54,403.08 305.73,401.76 304.50,403.90 299.44,403.28 298.21,404.54 267.73,399.87" fill="#17201c" opacity=".52"/><polygon data-occluder="way/276473144" points="242.73,440.56 222.35,441.31 222.16,439.42 215.20,439.67 215.39,441.56 206.18,441.91 206.57,445.84 243.12,444.49" fill="#17201c" opacity=".52"/><polygon data-occluder="way/276472515" points="170.56,480.21 161.24,481.23 159.18,474.67 168.51,473.66" fill="#17201c" opacity=".52"/><polygon data-occluder="way/276472991" points="304.21,417.79 302.58,422.52 260.54,415.54 258.40,408.59 268.15,409.46 266.73,411.67" fill="#17201c" opacity=".52"/><polygon data-occluder="way/276472656" points="196.47,472.46 181.32,472.99 180.88,468.24 196.04,467.72" fill="#17201c" opacity=".52"/><polygon data-occluder="way/1165345144" points="372.25,362.57 343.27,356.07 337.55,365.63 359.49,370.69 351.50,382.63 346.91,381.80 330.58,378.83 324.76,388.59 361.58,395.67 377.79,372.44 367.11,370.07" fill="#17201c" opacity=".52"/><polygon data-occluder="way/276472726" points="174.51,485.34 173.83,481.57 162.08,482.32 162.77,486.10" fill="#17201c" opacity=".52"/><polygon data-occluder="way/275799133" points="565.39,254.36 550.82,267.27 555.26,269.26 543.28,279.50 520.45,269.33 534.57,260.93 544.22,264.02 555.92,253.10" fill="#17201c" opacity=".52"/><polygon data-occluder="way/276472925" points="392.18,346.55 389.67,350.27 395.23,351.53 388.29,361.82 395.41,363.43 404.87,349.42" fill="#17201c" opacity=".52"/><polygon data-occluder="way/259723464" points="459.95,295.80 488.57,305.91 454.88,338.07 425.46,333.50 429.92,324.05 437.01,325.17 445.67,326.54 450.48,321.84 463.71,308.93 454.78,303.77" fill="#17201c" opacity=".52"/><polygon data-occluder="way/276472744" points="245.26,447.84 225.14,449.11 226.04,454.19 227.93,454.07 246.16,452.91" fill="#17201c" opacity=".52"/><polygon data-occluder="way/276982475" points="450.48,331.18 440.66,329.48 437.01,334.51 445.67,335.88" fill="#17201c" opacity=".52"/><polygon data-occluder="way/276175862" points="765.61,145.10 758.44,140.93 750.05,148.69 758.43,151.75" fill="#17201c" opacity=".52"/><polygon data-occluder="way/276472604" points="187.28,480.67 178.71,480.31 178.03,485.55 186.60,485.91" fill="#17201c" opacity=".52"/><polygon data-occluder="way/276472849" points="208.83,478.77 202.55,479.02 202.34,476.92 196.05,477.16 195.65,473.46 208.21,472.97" fill="#17201c" opacity=".52"/><polygon data-occluder="way/276473131" points="193.53,489.82 182.15,490.41 182.59,487.88 178.69,488.27 178.58,486.43 166.12,487.53 165.99,495.30 193.19,493.79" fill="#17201c" opacity=".52"/><polygon data-occluder="way/276175885" points="749.96,155.61 741.13,152.35 719.26,172.33 717.07,171.51 711.10,176.98 724.72,182.01 729.44,177.69 726.86,176.73" fill="#17201c" opacity=".52"/><polygon data-occluder="way/276472715" points="246.45,459.96 246.16,452.91 227.93,454.07 228.89,461.01" fill="#17201c" opacity=".52"/><polygon data-occluder="way/276472706" points="200.14,481.61 190.70,481.53 190.53,486.84 199.96,486.91" fill="#17201c" opacity=".52"/><polygon data-occluder="way/276472422" points="388.71,370.47 383.20,369.23 369.51,386.50 374.57,387.82" fill="#17201c" opacity=".52"/><polygon data-occluder="way/276473148" points="297.71,422.76 281.44,419.82 269.18,442.51 284.76,445.33 290.47,434.74 295.24,435.60 299.57,427.59 295.50,426.85" fill="#17201c" opacity=".52"/><polygon data-occluder="way/895236157" points="600.08,251.11 598.41,250.48 595.57,253.13 597.22,253.76" fill="#17201c" opacity=".52"/><polygon data-occluder="way/276472544" points="223.66,471.00 219.01,471.13 219.47,477.09 224.12,476.96" fill="#17201c" opacity=".52"/><polygon data-occluder="way/276472837" points="247.59,464.12 242.02,464.37 242.17,465.49 234.61,465.83 234.99,468.90 248.10,468.30" fill="#17201c" opacity=".52"/><polygon data-occluder="way/275798314" points="718.17,185.87 689.06,214.70 673.98,209.56 703.10,180.73" fill="#17201c" opacity=".52"/><polygon data-occluder="way/276472356" points="341.24,415.71 338.38,419.64 326.37,416.71 329.23,412.78" fill="#17201c" opacity=".52"/><polygon data-occluder="way/276472501" points="268.34,446.70 269.85,443.41 295.74,447.35 294.23,450.64" fill="#17201c" opacity=".52"/><polygon data-occluder="way/276472631" points="247.92,471.22 232.49,472.08 233.28,477.20 248.71,476.34" fill="#17201c" opacity=".52"/><polygon data-occluder="way/1089443452" points="472.11,339.62 468.44,338.38 462.42,344.44 466.09,345.67" fill="#17201c" opacity=".52"/><polygon data-occluder="way/259723466" points="460.26,360.44 434.30,351.69 402.78,348.49 399.70,358.49 427.78,361.34 451.41,369.30" fill="#17201c" opacity=".52"/><polygon data-occluder="way/276472554" points="394.03,387.35 383.14,383.92 370.95,396.98 381.82,400.41" fill="#17201c" opacity=".52"/><polygon data-occluder="way/276472635" points="248.84,479.68 225.61,481.28 227.52,487.85 248.83,484.77" fill="#17201c" opacity=".52"/><polygon data-occluder="way/276473190" points="316.26,424.48 303.81,447.12 316.17,449.40 321.51,439.69 337.00,442.54 341.31,434.71 324.75,431.66 327.55,426.56" fill="#17201c" opacity=".52"/><polygon data-occluder="way/262209819" points="659.56,215.39 682.59,223.49 673.99,231.75 668.40,229.78 637.06,259.92 631.65,265.12 605.44,290.32 609.67,291.80 600.77,300.35 578.17,292.41 587.07,283.85 588.61,284.39 613.43,260.53 610.37,259.45 617.10,252.98 623.92,246.42 627.71,247.75 652.10,224.32 650.76,223.84" fill="#17201c" opacity=".52"/><polygon data-occluder="way/276472931" points="285.40,468.29 268.96,465.07 265.30,471.35 275.34,473.31 277.05,470.37 283.45,471.62" fill="#17201c" opacity=".52"/><polygon data-occluder="way/276473146" points="381.27,405.32 379.11,409.43 394.58,413.07 399.66,407.81 427.01,379.51 429.23,377.56 421.04,375.14 390.31,405.21" fill="#17201c" opacity=".52"/><polygon data-occluder="way/276473073" points="292.22,459.45 290.21,463.30 282.87,461.97 280.78,466.04 300.00,469.30 303.54,463.53 304.63,461.13" fill="#17201c" opacity=".52"/><polygon data-occluder="way/276473000" points="370.15,428.26 368.76,431.21 353.06,428.25 350.91,430.58 344.78,429.25 347.70,423.97" fill="#17201c" opacity=".52"/><polygon data-occluder="way/276473088" points="452.60,379.01 434.39,373.06 429.23,377.56 427.01,379.51 434.82,382.43 418.84,396.94 429.86,400.67" fill="#17201c" opacity=".52"/><polygon data-occluder="way/276472902" points="368.14,433.36 366.75,436.13 356.95,434.37 353.41,442.41 347.59,439.84 351.05,431.83" fill="#17201c" opacity=".52"/><polygon data-occluder="way/276472357" points="391.33,418.22 380.07,416.68 377.21,423.42 383.76,424.69 388.46,425.59" fill="#17201c" opacity=".52"/><polygon data-occluder="way/276472703" points="302.05,481.55 270.65,474.29 267.95,479.51 300.35,485.57" fill="#17201c" opacity=".52"/><polygon data-occluder="way/276473021" points="421.56,407.47 413.00,405.53 409.15,408.84 399.66,407.81 394.58,413.07 414.80,414.64" fill="#17201c" opacity=".52"/><polygon data-occluder="way/276472853" points="271.27,484.02 269.68,488.48 286.72,490.49 287.66,487.85 280.59,487.02 281.23,485.19" fill="#17201c" opacity=".52"/><polygon data-occluder="way/838964280" points="388.46,425.59 397.88,427.42 395.66,430.07 382.09,427.26 383.76,424.69" fill="#17201c" opacity=".52"/><polygon data-occluder="way/276472855" points="297.86,471.51 294.17,477.05 299.75,478.78 300.14,477.67 319.98,482.18 322.52,477.36" fill="#17201c" opacity=".52"/><polygon data-occluder="way/276472573" points="231.66,519.39 224.52,518.97 222.78,528.55 229.92,528.97" fill="#17201c" opacity=".52"/><polygon data-occluder="way/276473118" points="334.31,469.84 303.54,463.53 300.00,469.30 299.27,470.51 323.50,475.48 328.90,476.58 330.05,476.82" fill="#17201c" opacity=".52"/><polygon data-occluder="way/276473208" points="392.67,431.97 383.02,430.02 381.86,432.93 378.41,432.98 377.56,435.08 383.45,437.61 385.69,434.98 388.75,435.51" fill="#17201c" opacity=".52"/><polygon data-occluder="way/276473057" points="270.06,492.82 269.68,488.48 286.72,490.49 293.28,492.64 290.81,498.36 284.23,497.66 285.61,495.34" fill="#17201c" opacity=".52"/><polygon data-occluder="way/276472589" points="377.02,448.25 347.77,443.51 345.91,448.50 373.86,452.87" fill="#17201c" opacity=".52"/><polygon data-occluder="way/276473009" points="368.00,456.42 363.13,454.47 358.46,458.34 320.55,450.45 316.96,453.93 361.49,463.89" fill="#17201c" opacity=".52"/><polygon data-occluder="way/276175863" points="826.31,180.42 821.70,177.73 818.69,181.69 824.25,183.11" fill="#17201c" opacity=".52"/><polygon data-occluder="way/275493607" points="540.10,345.53 528.54,347.12 515.98,348.85 518.25,354.57 509.96,355.71 514.11,366.01 535.70,362.88 533.70,357.52 544.14,355.86" fill="#17201c" opacity=".52"/><polygon data-occluder="way/276472517" points="285.93,500.69 284.08,504.72 267.45,502.38 268.92,498.14" fill="#17201c" opacity=".52"/><polygon data-occluder="way/276472220" points="230.30,538.32 226.31,537.75 227.79,534.24 203.82,530.84 203.74,531.02 212.57,536.15 219.69,537.16 218.61,539.67 223.70,542.63 224.73,540.23 229.22,540.86" fill="#17201c" opacity=".52"/><polygon data-occluder="way/276175851" points="823.29,189.20 816.27,187.32 809.52,195.79 816.54,197.68" fill="#17201c" opacity=".52"/><polygon data-occluder="way/276472629" points="267.21,503.68 265.83,508.33 285.74,511.95 288.29,507.17" fill="#17201c" opacity=".52"/><polygon data-occluder="way/276472246" points="345.73,479.23 336.46,477.77 335.62,479.25 331.18,478.45 329.72,479.84 327.41,479.22 328.90,476.58 323.50,475.48 322.52,477.36 319.98,482.18 318.67,484.69 336.66,488.89" fill="#17201c" opacity=".52"/><polygon data-occluder="way/276472778" points="279.36,518.31 276.52,522.78 264.80,520.79 264.58,515.92 269.48,516.72" fill="#17201c" opacity=".52"/><polygon data-occluder="way/276175869" points="808.92,207.15 802.52,205.38 790.56,220.02 796.96,221.78" fill="#17201c" opacity=".52"/><polygon data-occluder="way/276472237" points="286.51,513.02 279.69,511.65 278.08,513.66 271.02,512.61 269.48,516.72 279.36,518.31 301.81,521.92 304.80,517.85 294.92,515.95 294.77,516.94 285.35,516.02" fill="#17201c" opacity=".52"/><polygon data-occluder="way/276472533" points="323.18,500.04 321.14,503.83 307.86,501.43 309.92,497.64" fill="#17201c" opacity=".52"/><polygon data-occluder="way/276472219" points="281.88,525.99 280.49,530.45 263.49,528.08 262.63,533.49 277.57,534.93 274.04,538.33 279.17,538.99 276.48,542.26 257.70,539.30 261.96,523.79" fill="#17201c" opacity=".52"/><polygon data-occluder="way/276175856" points="779.57,241.64 774.34,239.63 763.66,249.05 768.88,251.06" fill="#17201c" opacity=".52"/><polygon data-occluder="way/276175854" points="766.39,244.79 759.89,242.89 730.85,276.32 737.36,278.23" fill="#17201c" opacity=".52"/><polygon data-occluder="way/276175858" points="730.81,288.77 723.90,286.35 708.56,301.12 715.47,303.55" fill="#17201c" opacity=".52"/><polygon data-occluder="way/276175859" points="680.41,320.89 675.89,319.33 668.41,326.65 672.93,328.21" fill="#17201c" opacity=".52"/><polygon data-occluder="way/276175877" points="714.28,307.17 706.91,304.02 693.69,314.51 701.05,317.66" fill="#17201c" opacity=".52"/><polygon data-occluder="way/276175876" points="669.93,330.38 663.25,328.08 631.25,359.60 642.88,363.60 662.50,344.25 657.56,342.56" fill="#17201c" opacity=".52"/><polygon data-occluder="way/276175849" points="642.63,365.02 628.59,360.20 589.95,398.16 615.11,406.81 626.37,395.75 620.84,393.84 643.61,371.48 638.02,369.56" fill="#17201c" opacity=".52"/><polygon data-occluder="way/276175865" points="563.94,445.16 549.26,439.47 594.11,399.67 604.16,403.19 591.19,413.57 597.36,415.96" fill="#17201c" opacity=".52"/><polygon data-occluder="way/276175886" points="547.09,439.41 530.73,453.56 538.36,456.55 554.05,442.97 554.71,442.40" fill="#17201c" opacity=".52"/><polygon data-occluder="way/1151051269" points="738.16,342.67 730.73,340.72 728.08,344.13 735.73,346.16" fill="#17201c" opacity=".52"/><polygon data-occluder="way/276175861" points="559.64,445.17 545.13,458.46 538.36,456.55 554.05,442.97" fill="#17201c" opacity=".52"/><polygon data-occluder="way/276175884" points="538.36,456.55 530.73,453.56 516.02,467.28 532.07,472.66 538.26,474.73 548.43,464.50 535.10,460.03" fill="#17201c" opacity=".52"/><polygon data-occluder="way/276175879" points="532.07,472.66 517.53,466.56 516.02,467.28 511.65,471.59 515.78,473.39 502.67,484.54 508.48,486.88 514.22,480.53 517.49,481.43 519.56,480.22 521.27,481.21 523.87,479.90" fill="#17201c" opacity=".52"/><polygon data-occluder="way/276175881" points="595.07,432.44 587.19,429.61 559.53,455.60 573.84,460.74 580.22,454.76 573.78,452.45" fill="#17201c" opacity=".52"/><polygon data-occluder="way/276175857" points="526.24,485.41 520.13,482.95 513.21,488.78 508.48,486.88 502.67,484.54 494.77,491.19 507.25,496.21 509.00,494.74 517.64,498.22 522.21,494.37 517.73,492.57" fill="#17201c" opacity=".52"/><polygon data-occluder="way/439032989" points="693.51,387.62 694.39,392.79 689.07,393.11 688.19,387.94" fill="#17201c" opacity=".52"/><polygon data-occluder="way/276175867" points="510.43,500.43 504.63,498.21 489.14,511.92 494.94,514.14" fill="#17201c" opacity=".52"/><polygon data-occluder="way/276175855" points="562.83,473.15 554.97,470.13 533.77,488.77 541.65,491.80" fill="#17201c" opacity=".52"/><polygon data-occluder="way/439033033" points="760.40,342.42 741.85,385.82 748.32,386.63 743.31,397.77 714.18,393.53 735.31,345.62 738.16,339.56" fill="#17201c" opacity=".52"/><polygon data-occluder="way/276175853" points="492.78,517.58 487.30,515.34 473.90,526.43 479.38,528.67" fill="#17201c" opacity=".52"/><polygon data-occluder="way/156452299" points="968.76,266.41 936.35,298.63 911.86,312.93 902.17,309.64 880.33,331.35 879.83,331.64 804.99,306.21 841.56,269.83 835.72,267.85 885.74,218.11" fill="#17201c" opacity=".52"/><polygon data-occluder="way/1537920508" points="708.61,415.97 697.57,398.14 686.15,400.57 697.19,418.41" fill="#17201c" opacity=".52"/><polygon data-occluder="way/439033016" points="661.69,441.22 659.55,453.44 651.51,452.99 653.65,440.77" fill="#17201c" opacity=".52"/><polygon data-occluder="way/439032976" points="679.58,429.88 682.87,440.34 676.89,441.00 673.59,430.53" fill="#17201c" opacity=".52"/><polygon data-occluder="way/1314623007" points="780.91,358.25 762.33,354.00 743.34,380.19" fill="#17201c" opacity=".52"/><polygon data-occluder="way/1537920534" points="806.86,371.13 836.47,353.85 818.48,349.69 804.16,370.50" fill="#17201c" opacity=".52"/><polygon data-occluder="way/439032995" points="674.63,448.35 674.45,448.45 674.48,448.33" fill="#17201c" opacity=".52"/></g></svg>